<svg width="35" height="39" viewBox="0 0 35 39" fill="none" xmlns="http://www.w3.org/2000/svg">
<rect y="0.375" width="35" height="38" rx="10" fill="#252333"/>
<path d="M17.4998 28.75L17.1906 29.4333C17.3871 29.5222 17.6125 29.5222 17.8091 29.4333L17.4998 28.75ZM19.8748 18.3333C19.8748 19.645 18.8115 20.7083 17.4998 20.7083V22.2083C19.6399 22.2083 21.3748 20.4734 21.3748 18.3333H19.8748ZM17.4998 20.7083C16.1882 20.7083 15.1248 19.645 15.1248 18.3333H13.6248C13.6248 20.4734 15.3597 22.2083 17.4998 22.2083V20.7083ZM15.1248 18.3333C15.1248 17.0217 16.1882 15.9583 17.4998 15.9583V14.4583C15.3597 14.4583 13.6248 16.1932 13.6248 18.3333H15.1248ZM17.4998 15.9583C18.8115 15.9583 19.8748 17.0217 19.8748 18.3333H21.3748C21.3748 16.1932 19.6399 14.4583 17.4998 14.4583V15.9583ZM25.0832 18.3333C25.0832 22.4995 21.6835 26.0329 17.1906 28.0667L17.8091 29.4333C22.5209 27.3004 26.5832 23.372 26.5832 18.3333H25.0832ZM17.8091 28.0667C13.3162 26.0329 9.9165 22.4995 9.9165 18.3333H8.4165C8.4165 23.372 12.4787 27.3004 17.1906 29.4333L17.8091 28.0667ZM9.9165 18.3333C9.9165 14.1452 13.3117 10.75 17.4998 10.75V9.25C12.4833 9.25 8.4165 13.3167 8.4165 18.3333H9.9165ZM17.4998 10.75C21.688 10.75 25.0832 14.1452 25.0832 18.3333H26.5832C26.5832 13.3167 22.5164 9.25 17.4998 9.25V10.75Z" fill="white"/>
</svg>
