<svg width="21" height="22" viewBox="0 0 21 22" fill="none" xmlns="http://www.w3.org/2000/svg">
<path d="M10.4099 0.905812C10.7533 0.905812 11.0914 0.928091 11.4059 0.980514C11.7157 1.02111 12.0214 1.08864 12.3194 1.18234C12.6182 1.27277 12.9105 1.38548 13.2027 1.52702C13.4871 1.66201 13.7794 1.82714 14.0716 2.00669C14.5657 2.32122 15.0519 2.57547 15.5473 2.77861C16.5226 3.16894 17.5538 3.4012 18.6022 3.46665C19.1343 3.50466 19.6808 3.52694 20.2496 3.52694V8.7692C20.2496 9.76523 20.1225 10.7088 19.8683 11.6079C19.624 12.4941 19.277 13.3487 18.8342 14.1543C18.3933 14.9588 17.8716 15.7163 17.2773 16.415C16.6738 17.1297 16.0204 17.8006 15.3219 18.4228C14.6142 19.0468 13.8689 19.6268 13.09 20.1593C12.3115 20.6993 11.5252 21.2012 10.7389 21.6573L10.4243 21.8447L10.1098 21.6573C9.30144 21.1893 8.51186 20.6896 7.74291 20.1593C6.95971 19.6328 6.21396 19.0525 5.51102 18.4228C4.813 17.8006 4.16001 17.1297 3.55697 16.415C2.96419 15.7133 2.44018 14.9562 1.99216 14.1543C1.55696 13.3451 1.21028 12.4914 0.95812 11.6079C0.702258 10.6836 0.576111 9.72822 0.583298 8.7692V3.52694C1.15339 3.52694 1.6999 3.50466 2.23199 3.46665C2.75577 3.43027 3.27616 3.35537 3.78894 3.24255C4.29089 3.12984 4.79283 2.98044 5.28691 2.77861C5.79961 2.57169 6.29116 2.31582 6.75475 2.01455C7.3314 1.63973 7.91591 1.3632 8.49256 1.18103C9.11359 0.990647 9.7604 0.897802 10.4099 0.905812ZM18.9312 4.81523C17.9391 4.76709 16.9563 4.60123 16.0034 4.32114C15.0555 4.03839 14.1527 3.62227 13.322 3.08528C12.8911 2.80246 12.4232 2.58061 11.9315 2.42607C11.4403 2.27763 10.9295 2.20428 10.4165 2.20851C9.89957 2.20517 9.38504 2.27848 8.88966 2.42607C8.39724 2.57559 7.9299 2.79778 7.50308 3.08528C6.67094 3.6252 5.76576 4.04315 4.81511 4.32638C3.88592 4.59636 2.91348 4.76149 1.89386 4.82178V8.77575C1.89386 9.64466 2.00657 10.4756 2.23199 11.2763C2.46163 12.0701 2.77808 12.8362 3.1756 13.5606C3.57787 14.2926 4.05201 14.9828 4.591 15.6208C5.13751 16.2643 5.72071 16.8632 6.34978 17.432C6.97885 18.0021 7.63807 18.5264 8.32742 19.0126C9.02333 19.5001 9.72055 19.9418 10.4165 20.3454C11.129 19.9306 11.8238 19.4859 12.499 19.0126C13.1929 18.5279 13.8556 18 14.4831 17.432C15.1122 16.8632 15.6967 16.2643 16.2432 15.6208C16.7823 14.9828 17.2564 14.2927 17.6586 13.5606C18.0544 12.8371 18.3661 12.0707 18.5878 11.2763C18.8201 10.4633 18.9357 9.62132 18.9312 8.77575V4.81523Z" fill="#34C759"/>
<path fill-rule="evenodd" clip-rule="evenodd" d="M15.2959 7.07724L14.7192 6.58185L14.1871 6.62772L8.47305 13.3745L6.52687 10.5961L6.00264 10.507L5.39585 10.9408L5.30542 11.465L7.80729 15.0376L8.09168 15.1949L8.69061 15.2316L8.99728 15.0979L15.3339 7.60802L15.2959 7.07724Z" fill="#34C759"/>
</svg>
