<svg width="24" height="24" viewBox="0 0 24 24" fill="none" xmlns="http://www.w3.org/2000/svg">
<g clip-path="url(#clip0_116_8306)">
<path d="M555.085 466.758H10.5354C5.16532 466.758 0.810852 462.403 0.810852 457.033V106.965C0.810852 101.595 5.16532 97.2402 10.5354 97.2402H555.086C560.456 97.2402 564.811 101.595 564.811 106.965V457.033C564.81 462.404 560.455 466.758 555.085 466.758Z" fill="#FF4B55"/>
<path d="M147.002 281.998C147.002 324.992 181.846 359.837 224.802 359.837C240.811 359.837 255.573 354.918 267.868 346.58C269.731 345.318 271.882 347.752 270.324 349.375C252.683 367.749 227.98 379.24 200.492 379.24C144.692 379.24 99.8737 332.2 103.495 275.599C106.657 226.183 147.626 186.505 197.115 184.816C225.921 183.832 251.9 195.475 270.256 214.559C271.831 216.196 269.684 218.667 267.803 217.394C255.521 209.075 240.783 204.159 224.802 204.159C181.847 204.159 147.002 239.083 147.002 281.998Z" fill="#F5F5F5"/>
<path d="M324.332 268.62L309.09 248.68C308.239 247.566 306.456 248.177 306.469 249.58L306.692 274.677L283.018 283.012C281.694 283.478 281.726 285.36 283.065 285.782L307.002 293.327L307.613 318.417C307.647 319.819 309.449 320.371 310.263 319.229L324.835 298.795L348.886 305.967C350.23 306.368 351.312 304.827 350.477 303.699L335.545 283.525L349.798 262.867C350.596 261.713 349.463 260.208 348.133 260.653L324.332 268.62Z" fill="#F5F5F5"/>
</g>
<defs>
<clipPath id="clip0_116_8306">
<rect width="24" height="24" fill="white" transform="translate(0.800049)"/>
</clipPath>
</defs>
</svg>
