<svg width="65" height="65" viewBox="0 0 65 65" fill="none" xmlns="http://www.w3.org/2000/svg">
<g filter="url(#filter0_d_30_186)">
<path d="M32.8337 24.9338C31.3036 24.9338 29.8364 25.5417 28.7543 26.6235C27.6724 27.7056 27.0646 29.1728 27.0646 30.703C27.0646 32.2332 27.6725 33.7004 28.7543 34.7824C29.8364 35.8643 31.3036 36.4722 32.8337 36.4722C34.3639 36.4722 35.8311 35.8643 36.9132 34.7824C37.9951 33.7004 38.6029 32.2332 38.6029 30.703C38.6011 29.1734 37.9926 27.7071 36.9112 26.6256C35.8297 25.5441 34.3633 24.9357 32.8337 24.9338ZM36.7151 28.9993L32.1189 33.5959C31.9612 33.7534 31.7472 33.842 31.5242 33.842C31.3014 33.842 31.0875 33.7534 30.9297 33.5959L28.9521 31.6182H28.9522C28.7945 31.4605 28.706 31.2465 28.706 31.0235C28.706 30.8005 28.7945 30.5868 28.9522 30.429C29.11 30.2713 29.3239 30.1828 29.5469 30.1828C29.7699 30.1828 29.9839 30.2715 30.1414 30.4292L31.5244 31.8122L35.527 27.8102C35.6846 27.6519 35.8987 27.5628 36.1221 27.5624C36.3455 27.562 36.5598 27.6508 36.7177 27.8087C36.8757 27.9666 36.9644 28.1809 36.964 28.4043C36.9638 28.6277 36.8745 28.8418 36.7162 28.9994L36.7151 28.9993Z" fill="#FF9401"/>
<path d="M43.7767 32.7087C44.2473 32.1923 44.834 31.55 44.834 30.7027C44.834 29.8554 44.2473 29.2131 43.7767 28.6971C43.541 28.4747 43.3448 28.214 43.1958 27.9261C43.1744 27.5857 43.2136 27.244 43.3119 26.9174C43.4649 26.2114 43.6385 25.4114 43.2274 24.7008C42.8111 23.9808 42.025 23.7315 41.3314 23.5107C41.0061 23.4346 40.6969 23.3022 40.4175 23.1192C40.2345 22.8398 40.1021 22.5306 40.026 22.2053C39.8054 21.512 39.5554 20.7256 38.8359 20.3093C38.1251 19.898 37.3252 20.0717 36.6193 20.2248C36.2925 20.323 35.9508 20.3623 35.6102 20.3409C35.3227 20.1919 35.0622 19.9957 34.8399 19.76C34.3236 19.2894 33.6813 18.7027 32.834 18.7027C31.9867 18.7027 31.3444 19.2894 30.8284 19.76C30.6059 19.9957 30.3453 20.1919 30.0574 20.3409C29.717 20.3623 29.3753 20.323 29.0486 20.2248C28.3427 20.0717 27.5427 19.8982 26.8321 20.3093C26.112 20.7256 25.8628 21.5117 25.642 22.2053C25.5659 22.5306 25.4335 22.8398 25.2504 23.1192C24.971 23.3022 24.6619 23.4346 24.3366 23.5107C23.6433 23.7313 22.8568 23.9813 22.4406 24.7008C22.0293 25.4116 22.203 26.2114 22.3561 26.9174C22.4543 27.2442 22.4936 27.5859 22.4722 27.9265C22.3232 28.214 22.1268 28.4746 21.8913 28.6971C21.4207 29.2131 20.834 29.8554 20.834 30.7027C20.834 31.55 21.4207 32.1923 21.8913 32.7083C22.127 32.9308 22.3232 33.1914 22.4722 33.4793C22.4936 33.8197 22.4543 34.1614 22.3561 34.4881C22.203 35.194 22.0295 35.994 22.4406 36.7046C22.8569 37.4246 23.6429 37.6739 24.3366 37.8947C24.6619 37.9708 24.9711 38.1032 25.2504 38.2863C25.4335 38.5656 25.5659 38.8748 25.642 39.2001C25.8626 39.8934 26.1126 40.6798 26.8321 41.0961C27.5429 41.507 28.3427 41.3337 29.0486 41.1806C29.3753 41.0824 29.717 41.0431 30.0574 41.0645C30.3453 41.2135 30.606 41.4097 30.8284 41.6454C31.3444 42.116 31.9867 42.7027 32.834 42.7027C33.6813 42.7027 34.3236 42.116 34.8399 41.6454C35.0622 41.4097 35.3227 41.2133 35.6106 41.0645C35.951 41.0431 36.2927 41.0824 36.6194 41.1806C37.3253 41.3337 38.1253 41.5072 38.8359 41.0961C39.556 40.6798 39.8052 39.8937 40.026 39.2001C40.1021 38.8748 40.2345 38.5656 40.4176 38.2863C40.697 38.1032 41.0061 37.9708 41.3314 37.8947C42.0247 37.6741 42.8112 37.4241 43.2275 36.7046C43.6387 35.9938 43.465 35.194 43.3119 34.4881C43.2137 34.1612 43.1744 33.8195 43.1958 33.479C43.3448 33.1914 43.5411 32.931 43.7767 32.7087H43.7767ZM32.8338 38.1535C30.8578 38.1535 28.9627 37.3685 27.5652 35.9712C26.1677 34.5738 25.3829 32.6787 25.3829 30.7026C25.3829 28.7264 26.1678 26.8314 27.5652 25.434C28.9625 24.0365 30.8576 23.2517 32.8338 23.2517C34.8099 23.2517 36.7049 24.0366 38.1024 25.434C39.4999 26.8313 40.2847 28.7264 40.2847 30.7026C40.2824 32.6778 39.4967 34.5718 38.0999 35.9688C36.7032 37.3656 34.8092 38.1513 32.8337 38.1535L32.8338 38.1535Z" fill="#FF9401"/>
</g>
<defs>
<filter id="filter0_d_30_186" x="0.833984" y="0.702705" width="64" height="64" filterUnits="userSpaceOnUse" color-interpolation-filters="sRGB">
<feFlood flood-opacity="0" result="BackgroundImageFix"/>
<feColorMatrix in="SourceAlpha" type="matrix" values="0 0 0 0 0 0 0 0 0 0 0 0 0 0 0 0 0 0 127 0" result="hardAlpha"/>
<feOffset dy="2"/>
<feGaussianBlur stdDeviation="10"/>
<feComposite in2="hardAlpha" operator="out"/>
<feColorMatrix type="matrix" values="0 0 0 0 0.345098 0 0 0 0 0.566274 0 0 0 0 0.898039 0 0 0 0.1 0"/>
<feBlend mode="normal" in2="BackgroundImageFix" result="effect1_dropShadow_30_186"/>
<feBlend mode="normal" in="SourceGraphic" in2="effect1_dropShadow_30_186" result="shape"/>
</filter>
</defs>
</svg>
