<svg width="320" height="302" viewBox="0 0 320 302" fill="none" xmlns="http://www.w3.org/2000/svg">
<path d="M90.0402 123.84V117.59C91.7802 117.68 91.8102 116.54 91.7902 115.2C91.7202 112 91.7902 108.8 91.7902 105.6L91.1202 105.79C90.6055 105.032 90.2391 104.184 90.0402 103.29C89.9502 96.2901 89.9802 89.2901 90.0402 82.2901C90.0402 81.2001 89.7102 79.8401 91.7102 80.3701C91.7102 79.6701 91.8202 79.1701 91.8202 78.6701C91.8202 66.5101 91.8202 54.3401 91.7702 42.1801C91.589 41.2874 91.2503 40.4341 90.7702 39.6601L90.1302 39.8301V15.3101H153.39C153.39 20.7501 153.39 26.1101 153.39 31.4701C153.39 33.8801 153.39 36.2801 153.5 38.6801C153.5 39.2701 154.21 39.8101 154.5 40.4101C154.876 41.0198 155.121 41.7008 155.22 42.4101C155.43 53.9101 155.59 65.4101 155.76 76.9201C155.76 77.9201 155.76 78.9201 155.76 80.1301C153.88 80.0701 153.89 81.3301 153.92 82.7301C154.09 89.8001 154.19 96.8601 154.39 103.92C154.39 104.43 155.04 104.92 155.39 105.43C155.74 105.94 156.12 106.27 156.14 106.71C156.294 109.323 156.384 111.94 156.41 114.56C156.41 115.66 157.06 117.14 155.01 117.36C154.78 117.36 154.56 118.6 154.53 119.27C154.46 120.77 154.53 122.27 154.53 123.91H133.64C133.54 121.82 133.46 119.81 133.36 117.57C135.54 117.8 135.36 116.49 135.36 115.08C135.21 112.39 135.24 109.69 135.05 107.01C134.844 106.247 134.506 105.526 134.05 104.88L133.24 105.1V99.5801C129.01 101.42 125.07 103.04 121.24 104.85C118.98 105.91 116.9 107.34 114.66 108.43C113.48 109 112.8 109.51 112.95 110.99C113.13 112.86 112.95 114.77 112.95 116.67C109.09 118.11 112.03 121.51 110.61 123.87L90.0402 123.84ZM111.11 86.5901C111.479 86.5725 111.845 86.5121 112.2 86.4101C119.05 83.6901 125.87 80.9301 132.73 78.2701C133.348 78.124 133.887 77.7505 134.241 77.224C134.595 76.6976 134.738 76.057 134.64 75.4301C134.42 64.9601 134.35 54.4801 134.1 44.0101C134.1 42.5901 135.32 40.3501 132.47 39.8801C132.33 39.8801 132.29 39.0801 132.25 38.6501C132.18 37.8801 132.15 37.1101 132.09 36.3201H110.69C111.09 37.8001 111.37 39.0901 111.79 40.3201C112 40.9401 112.74 41.4801 112.79 42.0701C112.9 45.9201 112.9 49.7801 112.9 53.6301C112.9 62.4234 112.9 71.2001 112.9 79.9601C110.81 80.6901 110.81 80.6901 111.11 86.5901V86.5901Z" fill="white"/>
<path d="M166.09 122.53V117.82L166.61 118C167.139 117.225 167.525 116.361 167.75 115.45C167.88 112.18 167.8 108.9 167.8 105.45C166.1 105.45 165.97 104.45 165.98 103.05C166.05 96.05 165.98 89.05 166.06 82.05C166.06 81.34 166.67 80.63 166.99 79.91L167.8 80.13V69.11C167.8 60.1633 167.8 51.2067 167.8 42.24C167.8 41.09 168.18 39.64 166.07 40.15V14.01H229.71V30.87C229.71 33.41 229.63 35.96 229.79 38.49C230.028 39.3594 230.413 40.1814 230.93 40.92L231.6 40.7C231.6 49.07 231.37 57.44 231.7 65.8C231.86 69.8 230.95 72.73 227.61 75.05C225.54 76.48 224.03 79.24 221.83 79.89C218.47 80.89 216.67 83.43 214.21 85.31C213.07 86.18 212.07 87.23 211.07 88.14C212.97 90.14 214.72 92.04 216.59 93.85C219.87 97.05 223.18 100.23 226.59 103.3C227.59 104.22 229.06 104.65 230.19 105.47C230.77 105.894 231.167 106.524 231.3 107.23C231.54 110.35 231.62 113.48 231.77 116.72C228.12 117.72 230.89 120.63 229.57 122.72C224.51 122.72 219.07 122.72 213.64 122.67C213.05 122.67 212.42 122.01 211.91 121.54C210.63 120.36 209.41 119.11 207.98 117.71L209.24 117.22C205.44 113.39 202.19 108.69 197.73 106.05C193.68 103.64 191.16 99.93 187.1 97.21V104.76C190.75 107.38 188.1 111.18 188.84 114.36C189.09 115.45 189.59 117.08 187.46 117.36C187.29 117.36 187.12 118.23 187.1 118.71C187.05 119.94 187.1 121.17 187.1 122.56L166.09 122.53ZM188.9 79.67C189.206 79.5503 189.501 79.4031 189.78 79.23C196.35 73.81 202.93 68.41 209.44 62.92C209.993 62.2997 210.287 61.4906 210.26 60.66C210.33 54.47 210.34 48.27 210.26 42.08C210.26 41.24 209.51 40.4 209.1 39.56L208.38 39.76V35.01H187.31C186.58 38.91 186.84 39.92 188.9 40.92V79.67Z" fill="white"/>
<path d="M241.71 122.55V117.93L242.25 118.09C242.769 117.096 243.14 116.032 243.35 114.93C243.5 111.82 243.4 108.69 243.4 105.57L242.76 105.77C242.36 105 241.62 104.24 241.61 103.46C241.52 96.46 241.61 89.35 241.52 82.29C241.52 80.91 241.52 79.89 243.32 80.29C243.32 71.16 243.32 62.29 243.32 53.41C243.32 49.63 243.32 45.85 243.19 42.07C243.19 41.22 242.42 40.4 242.02 39.56L241.36 39.77V14H303.71V16.32C303.71 23.24 303.71 30.15 303.82 37.07C303.82 38.53 303.27 40.48 306.04 40.61V79.44C305.38 80.44 304.56 81.16 304.55 81.87C304.46 89.58 304.49 97.29 304.49 104.42L306.6 106.42C306.06 107.003 305.444 107.511 304.77 107.93C298.35 110.82 291.94 113.73 285.45 116.45C280.4 118.57 275.23 120.45 270.1 122.36C269.558 122.557 268.986 122.655 268.41 122.65C259.89 122.65 251.373 122.65 242.86 122.65C242.475 122.64 242.091 122.607 241.71 122.55ZM284.64 79.9H285.15C285.15 75.1 285.15 70.3 285.15 65.5C285.09 57.71 285.02 49.93 284.9 42.14C284.9 41.5 284.55 40.33 284.31 40.31C282.81 40.21 283.09 39.11 282.99 38.26C282.85 37.26 282.82 36.14 282.74 35.04H262.84C262.04 38.53 262.39 39.84 264.36 40.98V80.21C262.46 80.01 262.56 81.27 262.56 82.55C262.56 88.37 262.577 94.19 262.61 100.01V103.24C269.55 100.16 276.11 97.24 282.61 94.3C282.906 94.0904 283.151 93.8155 283.324 93.4964C283.498 93.1774 283.595 92.8228 283.61 92.46C283.69 89.11 283.54 85.76 283.61 82.46C283.802 81.5535 284.151 80.6872 284.64 79.9Z" fill="white"/>
<path d="M35.29 117.52V123.03H14.29V117.54C16.01 117.7 16.16 116.65 16.11 115.23C16 112.68 16.04 110.13 16.11 107.58C16.11 106.23 16.29 104.85 14.06 105.12C14.06 97.1201 14.06 89.34 14.12 81.56C14.12 81.01 15.05 80.4701 15.54 79.9301L16.05 80.16C16.05 76.82 16.05 73.49 16.05 70.16C15.98 61.01 15.92 51.8601 15.8 42.7101C15.8 41.6401 16.45 40.07 14.36 39.98C14.22 39.98 14 39.2401 14 38.8501C14 30.7701 14 22.7 14 14.47H35V19.91C35 26.03 35 32.1467 35 38.26C35.1107 39.2347 35.5403 40.1456 36.2221 40.8509C36.9039 41.5562 37.7996 42.0164 38.77 42.16C44.52 42.16 50.27 42.16 56.03 42.16C56.71 42.16 57.39 41.55 58.08 41.23L56.21 39.37V14.42H77.21C77.21 15.07 77.32 15.7 77.33 16.33C77.33 23.61 77.33 30.8901 77.33 38.1801C77.33 39.0901 76.89 40.31 78.55 40.5C78.78 40.5 79.08 41.41 79.08 41.9C79.08 54.21 79.16 66.5101 79.08 78.8201C79.08 79.5001 78.28 80.17 77.35 80.7C77.35 88.48 77.35 96.2667 77.35 104.06C77.35 104.41 77.42 105.06 77.55 105.06C80.29 105.59 79.09 107.77 79.24 109.26C79.4067 111.289 79.4334 113.327 79.32 115.36C79.1757 115.988 78.8996 116.577 78.51 117.09C78.15 117.73 77.51 118.3 77.39 118.96C77.2839 120.291 77.2672 121.627 77.34 122.96H56.47V117.77L56.94 117.95C57.4606 117.18 57.8398 116.323 58.06 115.42C58.19 112.15 58.11 108.87 58.11 105.6L57.49 105.8C57.1 104.96 56.38 104.12 56.37 103.27C56.26 96.3601 56.3 89.4401 56.27 82.5201C56.27 81.2401 56.2 80.01 58.03 80.16V63.47H37.03V70.95C37.03 73.5 37.12 76.0601 37.03 78.6001C36.8451 79.3649 36.5232 80.0899 36.08 80.7401L35.26 80.53V94.64C35.26 97.48 35.36 100.32 35.26 103.16C35.26 104.54 35.42 105.55 37.11 105.62C37.11 109.11 37.19 112.46 37.05 115.8C37.05 116.45 36.21 117.08 35.76 117.71L35.29 117.52Z" fill="white"/>
<path d="M150.83 133.78V161.97L154.5 162.22V189.89L150.88 190.28V220.52C129.423 221.082 108.025 223.03 86.8198 226.35V194.35C90.4898 193.49 90.4798 193.49 90.4898 189.78C90.5298 182.14 90.5732 174.497 90.6198 166.85C90.6198 165.92 90.6198 165 90.6198 163.96L87.0898 163.8V133.8L150.83 133.78ZM111.64 163.04V191.63L108.03 192.21V206.03L129.64 204.37V191.02L133.2 190.75V162.52L129.68 162.26V150.98H108.23V163.04H111.64Z" fill="white"/>
<path d="M168.58 220.67V190.51L172.05 190.16V162.16L168.48 161.93V133.76H232.19V163.63L235.96 163.98C236.01 164.98 236.09 165.98 236.1 166.98C236.16 171.42 236.15 175.86 236.28 180.3C236.37 181.011 236.247 181.732 235.926 182.373C235.606 183.014 235.103 183.545 234.48 183.9C231.22 185.95 228.03 188.12 224.88 190.34C223.132 191.73 220.953 192.466 218.72 192.42C217.09 192.36 215.41 193.83 213.51 194.73C218.97 199.55 224.03 204.13 229.22 208.54C231.37 210.36 232.86 212.18 232.74 215.26C232.6 218.59 233.01 221.94 233.19 225.67C230.92 225.42 228.73 225.2 226.55 224.92C223.55 224.54 220.48 224.22 217.5 223.64C216.326 223.344 215.246 222.755 214.36 221.93C206.31 214.93 198.36 207.81 189.89 200.37V220.69L168.58 220.67ZM193.44 187.11C199.18 183.52 204.22 179.93 209.67 177.11C214 174.87 215.67 172.05 215.05 167.22C214.55 163.41 214.92 163.36 211.05 162.74V151.01H189.75V162.35L193.44 162.63V187.11Z" fill="white"/>
<path d="M248.99 133.7H303.74V154.52L270.24 152.82V165.93L273.89 166.66V172.11L306.46 175.56V196.56L274.17 191.49V198.59L270.62 198.28V212.23L302.11 218.94V240.94C298.46 239.94 295.17 238.84 291.82 238.04C278.29 234.83 264.74 231.72 251.22 228.49C250.61 228.34 249.71 227.49 249.7 226.97C249.54 216.7 249.5 206.43 249.45 196.16C249.478 195.943 249.546 195.733 249.65 195.54L252.76 195.77V165.11L248.99 164.54V133.7Z" fill="white"/>
<path d="M18.5298 204.57C19.2206 204.484 19.8947 204.295 20.5298 204.01C21.1198 203.62 21.9498 203.01 21.9498 202.41C21.9498 191.56 21.9498 180.71 21.8898 169.86C21.8327 169.602 21.7489 169.351 21.6398 169.11H18.2798V133.77H72.8898C72.4198 139.77 71.9498 145.77 71.4698 152.04L39.3698 153.46V167.16H42.6898V199.83L39.2998 200.59V217.83L69.8898 200.27C70.0198 201.89 70.1498 202.96 70.1898 204.03C70.3698 208.69 70.4798 213.34 70.7098 218.03C70.7837 218.52 70.6983 219.02 70.466 219.458C70.2337 219.896 69.8669 220.247 69.4198 220.46C61.8798 225 54.4198 229.74 46.8298 234.09C44.5098 235.41 41.6198 235.73 38.9898 236.49L20.8198 241.7C20.1298 241.9 19.4398 242.08 18.5098 242.32L18.5298 204.57Z" fill="white"/>
<path d="M173.57 274.04C171.82 275.49 170.36 277.1 168.57 278.1C166.752 279.117 164.75 279.759 162.68 279.99C159.8 280.25 158 278.43 157.07 275.59C155.95 276.46 154.95 277.28 153.9 278.02C153.198 278.538 152.444 278.98 151.65 279.34C149.17 280.34 146.65 280.61 144.47 278.72C143.508 277.861 142.863 276.704 142.638 275.435C142.414 274.165 142.622 272.857 143.23 271.72C144.743 268.371 146.582 265.179 148.72 262.19C151.16 258.86 154.11 255.89 156.85 252.79C158.05 251.42 159.45 250.5 161.17 251.89C162.89 253.28 162.83 255.06 161.17 256.99C157.9 260.8 154.54 264.53 151.39 268.43C150.07 270.06 148.68 271.84 149 274.98C150.5 274.04 151.84 273.52 152.74 272.58C158.07 267.01 163.32 261.37 168.56 255.72C171.03 253.06 173.41 250.32 176.01 247.42C175.523 247.297 175.018 247.266 174.52 247.33C171.11 248.61 168.52 246.63 166.15 244.87C165.634 244.408 165.221 243.842 164.939 243.21C164.656 242.577 164.51 241.893 164.51 241.2C164.526 240.795 164.624 240.398 164.798 240.032C164.972 239.666 165.218 239.339 165.522 239.071C165.825 238.802 166.18 238.599 166.565 238.471C166.95 238.344 167.356 238.296 167.76 238.33C168.99 238.46 170.2 239.56 171.24 240.44C171.7 240.83 171.73 241.74 171.98 242.5C175.25 242.04 178.48 241.64 181.69 241.09C182.3 240.98 182.84 240.27 183.36 239.78C186.48 236.83 189.57 233.85 192.7 230.91C194.25 229.45 195.37 229.51 196.77 231.03C198.17 232.55 198.09 233.83 196.77 235.22C195.45 236.61 193.96 238.15 192.35 239.83C194.59 239.64 196.68 239.45 198.78 239.29C200.23 239.17 201.69 239.12 203.13 238.97C204.87 238.79 205.6 239.68 205.51 241.26C205.42 242.84 205.89 244.64 203.4 244.81C198.1 245.18 192.8 245.52 187.53 246.07C186.204 246.206 184.963 246.787 184.01 247.72C177.863 254.52 171.8 261.397 165.82 268.35C164.041 270.255 163.017 272.744 162.94 275.35C164.17 274.79 165.22 274.6 165.85 273.98C169.85 270.05 173.85 266.15 177.56 261.98C182.21 256.78 187.3 252.35 194.38 250.98C195.95 250.728 197.555 250.813 199.09 251.23C201.73 251.92 202.79 254.23 201.95 256.84C199.35 264.89 189.45 270.45 180.37 268.9C179.55 270.44 178.71 272.06 180.04 273.69C181.37 275.32 183.23 275.52 185.2 274.99C189.82 273.76 193.56 270.99 197.12 267.99C198.79 266.59 200.35 265.06 201.93 263.55C203.11 262.41 204.34 262.16 205.58 263.33C205.838 263.543 206.045 263.81 206.188 264.113C206.33 264.415 206.404 264.746 206.404 265.08C206.404 265.414 206.33 265.745 206.188 266.047C206.045 266.35 205.838 266.617 205.58 266.83C199.86 272.59 193.93 278.2 185.58 279.83C179.86 280.9 175.85 279.91 173.57 274.04ZM196.57 255.65C191.78 256.99 185.31 261.65 184.12 264.51C189.25 264.57 196.16 259.75 196.58 255.65H196.57Z" fill="white"/>
<path d="M125.44 275.97C128.93 278.17 132.33 280.4 135.82 282.47C136.656 283.06 137.633 283.417 138.652 283.505C139.672 283.593 140.696 283.408 141.62 282.97C142.014 282.782 142.444 282.68 142.881 282.672C143.317 282.663 143.751 282.748 144.152 282.92C144.553 283.092 144.913 283.348 145.208 283.671C145.502 283.993 145.725 284.375 145.86 284.79C146.32 286.79 144.86 287.47 143.3 287.93C139.46 289.1 135.97 287.93 132.7 286.04C129.88 284.39 127.18 282.52 124.38 280.84C122.02 279.42 119.6 278.59 116.76 279.84C116.384 280.021 115.973 280.117 115.556 280.123C115.139 280.128 114.726 280.043 114.345 279.873C113.964 279.702 113.625 279.451 113.351 279.136C113.078 278.821 112.876 278.451 112.76 278.05C112.31 276.05 113.44 275.05 115.24 274.68C115.64 274.516 116.068 274.428 116.5 274.42C119.22 274.97 120.4 273.2 121.83 271.34C127.34 264.11 133.1 257.11 138.64 249.92C141.49 246.26 144.14 242.43 146.79 238.61C147.17 237.783 147.42 236.903 147.53 236C146.686 235.686 145.791 235.53 144.89 235.54C136.26 237.48 128.99 241.54 124.72 249.62C123.87 251.23 124.05 253.52 124.17 255.47C124.26 256.85 125.06 258.19 123.17 258.92C122.374 259.209 121.496 259.176 120.723 258.829C119.95 258.482 119.343 257.847 119.03 257.06C117.995 254.559 117.844 251.779 118.6 249.18C119.791 245.252 122.161 241.785 125.39 239.25C130.23 235.18 135.56 231.88 141.92 230.98C144.557 230.633 147.237 230.837 149.79 231.58C150.487 231.761 151.135 232.095 151.687 232.558C152.239 233.021 152.681 233.601 152.981 234.256C153.28 234.911 153.431 235.625 153.42 236.345C153.41 237.065 153.239 237.774 152.92 238.42C151.59 241.546 149.888 244.501 147.85 247.22C140.91 256.29 133.75 265.22 126.69 274.15C126.29 274.71 125.9 275.32 125.44 275.97Z" fill="white"/>
<path d="M95.6402 258.63C93.5402 258.63 91.4302 258.63 89.3202 258.63C88.9927 258.679 88.6584 258.657 88.3406 258.564C88.0227 258.471 87.7288 258.31 87.4795 258.092C87.2301 257.874 87.0312 257.605 86.8967 257.302C86.7621 256.999 86.695 256.671 86.7002 256.34C86.6298 256.018 86.6326 255.684 86.7086 255.363C86.7845 255.042 86.9316 254.743 87.139 254.486C87.3464 254.23 87.6088 254.023 87.9067 253.882C88.2046 253.741 88.5305 253.668 88.8602 253.67C91.9602 253.41 95.0702 253.13 98.1802 252.88C99.3302 252.78 100.5 252.81 101.65 252.69C103.82 252.45 105.02 253.34 105.22 255.43C105.26 255.84 105.21 256.253 105.075 256.642C104.94 257.031 104.723 257.386 104.438 257.683C104.153 257.98 103.808 258.212 103.425 258.364C103.042 258.515 102.631 258.582 102.22 258.56C100.04 258.56 97.8602 258.56 95.6802 258.56L95.6402 258.63Z" fill="white"/>
<path d="M228.77 262.11H222.44C222.112 262.153 221.778 262.125 221.462 262.028C221.146 261.93 220.855 261.766 220.608 261.546C220.361 261.326 220.165 261.055 220.032 260.752C219.9 260.449 219.834 260.121 219.84 259.79C219.765 259.466 219.766 259.13 219.841 258.806C219.915 258.482 220.063 258.18 220.272 257.922C220.481 257.663 220.746 257.456 221.047 257.315C221.348 257.175 221.678 257.105 222.01 257.11C226.5 256.75 231.01 256.33 235.48 256.11C237.37 256 238.17 257.25 238.19 259.05C238.21 260.85 237.46 262.05 235.55 262.05C233.29 262.11 231.03 262.05 228.77 262.05V262.11Z" fill="white"/>
</svg>
