<svg width="135" height="80" viewBox="0 0 135 80" fill="none" xmlns="http://www.w3.org/2000/svg">
<path d="M50.9053 7.04873C51.0658 7.00277 51.2348 6.98911 51.4013 7.00864C54.8462 7.00864 58.2911 7.00864 61.7481 7.00864C61.905 6.99588 62.0625 7.02547 62.2021 7.09395C62.3417 7.16242 62.4576 7.26694 62.5363 7.39525C69.3754 16.8036 76.2195 26.2072 83.0687 35.6061C83.1631 35.7378 83.2635 35.8666 83.373 36.0242C83.5069 35.8695 83.4552 35.7063 83.4552 35.5631C83.4552 30.437 83.4552 25.3109 83.4552 20.1848V7.51553C83.4552 7.45539 83.4552 7.39811 83.4552 7.33797C83.4552 7.01437 83.4552 7.00864 83.8295 7.00864H88.44C90.4424 7.00864 92.4417 7.00864 94.4442 7.00864C94.5799 6.99918 94.7157 7.02651 94.8354 7.08742C94.9551 7.14832 95.0538 7.24024 95.1198 7.35229C101.985 16.7931 108.858 26.2311 115.737 35.6662L116.042 36.0643C116.107 35.9119 116.128 35.7458 116.103 35.5831V8.14841C116.103 7.88495 116.103 7.62148 116.103 7.36088C116.103 7.01437 116.103 7.0115 116.495 7.0115H126.866C126.975 7.01723 127.083 7.01723 127.192 7.0115C127.451 6.98 127.524 7.10028 127.496 7.31793C127.496 7.38952 127.496 7.46398 127.496 7.53557C127.496 22.1101 127.496 36.6847 127.496 51.2593C127.496 51.8893 127.603 51.8321 126.909 51.8321C123.479 51.8321 120.05 51.8321 116.62 51.8321C116.455 51.846 116.289 51.8151 116.143 51.743C115.996 51.6709 115.874 51.5607 115.792 51.4254C108.935 41.9979 102.076 32.5724 95.2171 23.1487L94.9585 22.7994C94.8785 22.9396 94.8538 23.1018 94.8885 23.2576C94.8885 26.7762 94.8885 30.2957 94.8885 33.8162V51.4283C94.8885 51.8063 94.8885 51.8091 94.4807 51.8091C90.9293 51.8091 87.3748 51.8091 83.8295 51.8091C83.7018 51.8095 83.5766 51.7754 83.4687 51.711C83.3609 51.6465 83.2749 51.5544 83.2209 51.4454C78.9422 45.5652 74.6614 39.6869 70.3786 33.8105C63.99 25.0436 57.5993 16.2757 51.2066 7.50694C51.0747 7.37459 50.9723 7.21881 50.9053 7.04873Z" fill="white"/>
<path d="M51.9673 51.7862C51.813 51.8408 51.6465 51.8576 51.4834 51.8349C48.0233 51.8349 44.5632 51.8349 41.1031 51.8349C40.9605 51.8462 40.8174 51.8198 40.6899 51.7585C40.5625 51.6973 40.4558 51.6037 40.3819 51.4884C35.0178 44.0999 29.6415 36.7143 24.253 29.3315C24.1525 29.2282 24.0805 29.1034 24.043 28.9678C24.1944 28.9099 24.3602 28.894 24.5208 28.922C27.4849 28.922 30.4489 28.922 33.413 28.922C35.2452 28.9162 37.003 28.2394 38.3141 27.0352C39.6253 25.8309 40.3868 24.1936 40.4374 22.4701C40.4881 20.7466 39.8238 19.0723 38.5854 17.8017C37.3469 16.531 35.6315 15.764 33.8025 15.6629C33.4769 15.6485 33.1513 15.6485 32.8257 15.6485C26.8204 15.6485 20.8152 15.6485 14.81 15.6485C14.645 15.6608 14.4797 15.6288 14.3332 15.5564C14.1867 15.4839 14.065 15.3739 13.9822 15.239C12.1076 12.6416 10.2148 10.0556 8.33103 7.4668C8.21092 7.33193 8.11995 7.17628 8.06323 7.0086H8.55014C16.8986 7.0086 25.2471 7.0086 33.5956 7.0086C37.2444 6.96231 40.793 8.13191 43.6138 10.3105C46.5688 12.5665 48.5918 15.7244 49.3319 19.2368C49.8065 21.3723 49.7766 23.5799 49.2444 25.7033C48.7123 27.8268 47.6908 29.8143 46.2522 31.5252C44.7924 33.2391 43.0034 34.6797 40.9784 35.7721C40.8871 35.8237 40.7927 35.8752 40.6953 35.9239C40.6695 35.9317 40.6464 35.9457 40.6281 35.9646C40.6099 35.9835 40.5972 36.0065 40.5913 36.0314C40.5855 36.0563 40.5867 36.0822 40.5948 36.1066C40.6029 36.1309 40.6176 36.1529 40.6375 36.1702C40.7014 36.2532 40.7623 36.3391 40.8232 36.4222C44.4527 41.4051 48.0832 46.3871 51.7147 51.3681C51.8324 51.487 51.9189 51.6302 51.9673 51.7862Z" fill="white"/>
<path d="M32.5941 51.749C32.4291 51.811 32.2498 51.8317 32.0738 51.8092H8.37949C8.03257 51.8092 8.02648 51.8092 8.02344 51.4598C8.02344 50.7897 8.02344 50.1167 8.02344 49.4552C8.02344 39.2335 8.02344 29.0118 8.02344 18.7901V18.1945C8.11473 18.2575 8.0417 18.1945 8.1056 18.1945C8.12106 18.1949 8.13597 18.1999 8.14821 18.2088C8.1969 18.2632 8.24559 18.3205 8.29124 18.3806L32.5941 51.749Z" fill="#E9001D"/>
<path d="M73.9148 56.9152C74.1143 56.8727 74.3201 56.862 74.5234 56.8837C75.6098 56.8837 76.6932 56.8837 77.7796 56.8837C78.2787 56.8837 78.1783 56.8293 78.2817 57.2675C78.6408 58.8024 78.9786 60.346 79.3195 61.8838C79.776 63.9228 80.2324 65.9618 80.6767 68.0037C80.8015 68.5764 80.8593 69.1835 80.9598 69.8536C81.2002 68.0122 81.824 66.3427 82.3018 64.6416C82.9926 62.1845 83.7169 59.7389 84.432 57.2904C84.5507 56.8837 84.5507 56.8809 84.9768 56.8809H88.3243C88.7929 56.8809 88.796 56.8809 88.9025 57.299C89.6572 60.2162 90.4089 63.1324 91.1575 66.0477C91.4996 67.1942 91.7568 68.3616 91.9274 69.5415C91.9589 69.5261 91.9856 69.5031 92.0049 69.475C92.0241 69.4469 92.0351 69.4145 92.037 69.3811C92.2956 67.4366 92.8191 65.5408 93.2177 63.6221C93.6559 61.5173 94.1307 59.4181 94.5963 57.3219C94.6176 57.2216 94.648 57.1214 94.6663 57.0212C94.6681 56.9995 94.6747 56.9785 94.6854 56.9593C94.6962 56.9401 94.711 56.9232 94.7289 56.9095C94.7468 56.8959 94.7675 56.8858 94.7897 56.8799C94.8119 56.874 94.8351 56.8723 94.858 56.8751H98.6985C98.4368 57.823 98.1903 58.7222 97.9377 59.6243C96.6758 64.1319 95.4119 68.6394 94.1459 73.1469C94.0394 73.5307 94.0394 73.5307 93.6316 73.5336H90.0437C89.642 73.5336 89.6389 73.5336 89.5446 73.1813C88.5951 69.7219 87.6467 66.2606 86.6992 62.7974C86.5989 62.4138 86.5257 62.0245 86.4801 61.6318C86.4801 61.5574 86.5105 61.4543 86.3523 61.4113C86.252 62.0531 86.1128 62.6889 85.9354 63.3157C85.0163 66.5823 84.1034 69.8498 83.1965 73.1183C83.0809 73.5307 83.0778 73.5307 82.6518 73.5336H78.8721C78.4887 73.5336 78.4856 73.5336 78.3852 73.1699C77.1679 68.8227 75.9578 64.4746 74.7547 60.1255L73.9787 57.3305C73.9253 57.1981 73.9035 57.0564 73.9148 56.9152Z" fill="#DDDDDD"/>
<path d="M123.519 64.5414C123.636 64.6241 123.777 64.671 123.923 64.676C124.597 64.7903 125.236 65.0394 125.798 65.4063C126.428 65.8046 126.925 66.3622 127.232 67.0148C127.539 67.6673 127.645 68.3884 127.536 69.0948C127.323 71.1166 126.096 72.3881 124.133 73.0897C123.24 73.3936 122.296 73.5449 121.346 73.5365C119.127 73.5365 116.909 73.5365 114.69 73.5365C114.301 73.5365 114.328 73.5365 114.328 73.1613V57.3935C114.328 57.2904 114.328 57.1902 114.328 57.0871C114.328 56.984 114.389 56.8723 114.547 56.8809C114.627 56.8809 114.703 56.8809 114.782 56.8809C116.83 56.8809 118.878 56.8809 120.926 56.8809C121.858 56.8755 122.786 56.9921 123.683 57.2274C124.251 57.3787 124.79 57.6105 125.284 57.9147C127.149 59.0602 127.207 61.4257 126.239 62.7258C125.661 63.4947 124.848 64.0799 123.908 64.404L123.519 64.5414ZM118.287 68.5793C118.287 69.2208 118.287 69.8623 118.287 70.5038C118.287 70.7099 118.367 70.7901 118.592 70.7901C119.289 70.7901 119.989 70.7901 120.686 70.7729C121.262 70.773 121.829 70.6308 122.329 70.3606C122.7 70.1549 122.997 69.8501 123.183 69.485C123.369 69.1198 123.435 68.7108 123.373 68.3101C123.349 67.943 123.211 67.5904 122.977 67.2958C122.743 67.0012 122.422 66.7775 122.055 66.652C121.769 66.5372 121.466 66.4629 121.157 66.4315C120.323 66.3781 119.486 66.3647 118.65 66.3914C118.306 66.3914 118.3 66.3914 118.297 66.7494C118.278 67.3536 118.281 67.9665 118.281 68.5793H118.287ZM119.642 59.653C119.243 59.653 118.963 59.653 118.683 59.653C118.297 59.653 118.291 59.653 118.287 60.0138C118.287 60.9045 118.287 61.7951 118.287 62.6857C118.287 62.9177 118.287 63.1525 118.287 63.3845C118.287 63.5248 118.342 63.6078 118.504 63.605C119.295 63.605 120.089 63.6766 120.871 63.5191C121.25 63.4694 121.607 63.323 121.904 63.0959C122.2 62.8687 122.425 62.5694 122.554 62.2304C122.977 61.0849 122.457 60.1398 121.227 59.8105C121.139 59.7876 121.048 59.7704 120.956 59.7532C120.521 59.6753 120.078 59.6417 119.636 59.653H119.642Z" fill="#DDDDDD"/>
<path d="M16.8154 66.105C17.8135 66.5374 18.4861 67.282 19.0612 68.1096C20.1842 69.719 21.2736 71.3485 22.3753 72.978L22.7131 73.4791C22.5974 73.5509 22.4563 73.5767 22.3205 73.5507C21.0789 73.5507 19.8373 73.5507 18.5987 73.5507C18.4714 73.5603 18.3442 73.532 18.235 73.4698C18.1257 73.4077 18.0401 73.3147 17.99 73.2042C17.1532 71.8726 16.3011 70.5495 15.452 69.2236C15.1812 68.7969 14.8769 68.396 14.5725 67.9893C13.9639 67.2018 13.0996 67.093 12.1623 67.1646C12.0254 67.1646 11.9767 67.2476 11.9737 67.365C11.9706 67.4824 11.9737 67.5998 11.9737 67.7144V73.0582C11.9737 73.5565 12.0345 73.5421 11.4807 73.5421H9.4326C9.06133 73.5421 8.68702 73.5421 8.31575 73.5421C8.08751 73.5421 7.95969 73.4935 8.01143 73.2558C8.01752 73.1833 8.01752 73.1105 8.01143 73.0381C8.01143 67.8261 8.01143 62.6131 8.01143 57.3992C8.01143 56.8007 7.95361 56.8837 8.55007 56.8837C10.519 56.8837 12.491 56.8837 14.4599 56.8837C15.5311 56.8729 16.5976 57.0178 17.6218 57.3133C17.9169 57.4034 18.2038 57.5154 18.48 57.6483C19.0997 57.94 19.6272 58.3797 20.0096 58.9235C20.392 59.4673 20.6159 60.0961 20.6589 60.7469C20.7489 61.4001 20.7023 62.0635 20.522 62.7C20.0381 64.2865 18.8939 65.2773 17.3114 65.8701C17.1653 65.9246 17.0071 65.9704 16.8762 66.0248C16.8549 66.0277 16.8519 66.0448 16.8154 66.105ZM11.9463 62.0155C11.9463 62.7 11.9463 63.3873 11.9463 64.0717C11.9463 64.255 12.0041 64.3352 12.211 64.3294C12.8197 64.3294 13.4283 64.3524 14.0369 64.3151C14.4308 64.3006 14.8161 64.2022 15.1637 64.0272C15.5113 63.8522 15.8121 63.6053 16.0436 63.3051C16.2751 63.0048 16.4311 62.659 16.4999 62.2938C16.5688 61.9285 16.5487 61.5534 16.4411 61.1965C16.2159 60.3632 15.5859 59.945 14.7277 59.7847C13.8696 59.6243 13.0266 59.7217 12.1776 59.6959C11.9706 59.6959 11.9615 59.8162 11.9615 59.9565L11.9463 62.0155Z" fill="#DDDDDD"/>
<path d="M53.6166 73.4906C53.4933 73.545 53.3562 73.5658 53.221 73.5508H49.7305C49.2588 73.5508 49.3227 73.5507 49.1949 73.1727C48.8601 72.1857 48.5264 71.1977 48.1936 70.2088C48.0719 69.8536 48.0689 69.8479 47.6824 69.8479C45.8352 69.8479 43.991 69.8479 42.1438 69.8479C42.0919 69.8407 42.0391 69.8433 41.9883 69.8556C41.9375 69.8679 41.8899 69.8896 41.8482 69.9195C41.8065 69.9494 41.7716 69.9868 41.7455 70.0296C41.7195 70.0724 41.7028 70.1197 41.6964 70.1687C41.3647 71.1882 41.0209 72.2019 40.68 73.2157C40.5674 73.5507 40.5644 73.5536 40.2083 73.5536H36.5778C36.5017 73.5536 36.4256 73.5536 36.3526 73.5536C36.2644 73.399 36.3709 73.2873 36.4135 73.1727C38.4544 67.8633 40.4995 62.554 42.5485 57.2446C42.6794 56.9066 42.6824 56.9066 43.075 56.9038H46.8942C47.4633 56.9038 47.3568 56.8408 47.5424 57.3276C49.0437 61.3082 50.542 65.2917 52.0372 69.278C52.518 70.5553 52.9978 71.8325 53.4766 73.1097C53.5253 73.2243 53.571 73.3589 53.6166 73.4906ZM44.9496 59.8362C44.3562 62.3163 43.3854 64.5758 42.6764 66.9555C44.1797 66.9555 45.6404 66.9555 47.0951 66.9555C47.1055 66.7888 47.0709 66.6223 46.9946 66.4716C46.5473 65.1342 46.0817 63.8025 45.6404 62.4623C45.4144 61.8712 45.2304 61.2665 45.0896 60.6524C45.044 60.4119 45.0044 60.1684 44.9496 59.8362Z" fill="#DDDDDD"/>
<path d="M24.408 65.2201V57.4221C24.408 57.319 24.408 57.2159 24.408 57.1157C24.408 56.9524 24.4719 56.8694 24.6545 56.8808C24.7458 56.8808 24.8401 56.8808 24.9314 56.8808H34.0609C34.5874 56.8808 34.5631 56.8264 34.5631 57.3505C34.5631 58.0951 34.5631 58.8425 34.5631 59.5871C34.5631 59.9393 34.5631 59.945 34.1735 59.945H28.9575C28.848 59.945 28.7384 59.945 28.6319 59.945C28.4524 59.945 28.3824 60.0023 28.3824 60.1713C28.3824 61.2538 28.3824 62.3334 28.3824 63.413C28.3824 63.6393 28.5071 63.6364 28.6867 63.6364H32.1772C32.7372 63.6364 33.2941 63.6364 33.854 63.6364C34.1036 63.6364 34.1583 63.7223 34.1583 63.9428C34.1583 64.7332 34.1583 65.5208 34.1583 66.3083C34.1583 66.692 34.1583 66.6978 33.7536 66.6978H28.9058C28.3337 66.6978 28.3884 66.6262 28.3854 67.1875C28.3854 68.1526 28.3854 69.1148 28.3854 70.0799C28.3854 70.5323 28.3428 70.4951 28.8449 70.4951H34.4292C35.053 70.4951 34.9861 70.4693 34.9861 71.0106C34.9861 71.7418 34.9861 72.472 34.9861 73.2013C34.9861 73.5364 34.9861 73.5421 34.63 73.5421C33.6988 73.5421 32.7676 73.5421 31.8364 73.5421H24.8097C24.411 73.5421 24.408 73.5421 24.408 73.1469V65.2201Z" fill="#DDDDDD"/>
<path d="M100.926 65.2143V57.4192C100.926 57.3161 100.926 57.213 100.926 57.1128C100.926 56.9467 100.99 56.8694 101.169 56.8808C101.264 56.8808 101.355 56.8808 101.449 56.8808H110.579C111.151 56.8808 111.09 56.8293 111.09 57.382C111.09 58.0846 111.09 58.7852 111.09 59.484C111.09 59.9851 111.136 59.945 110.579 59.9479H105.129C104.967 59.9479 104.906 60.0166 104.909 60.1598C104.909 60.2171 104.909 60.2744 104.909 60.3345V63.2698C104.909 63.665 104.891 63.6364 105.326 63.6364H110.074C110.167 63.6422 110.26 63.6422 110.354 63.6364C110.609 63.6078 110.658 63.7338 110.658 63.9457C110.658 64.7504 110.658 65.5523 110.658 66.3541C110.658 66.6863 110.658 66.6949 110.293 66.6949H105.317C104.916 66.6949 104.909 66.6949 104.909 67.0815C104.909 68.0895 104.909 69.0861 104.909 70.1028C104.909 70.5294 104.894 70.4951 105.354 70.4951H110.938C111.528 70.4951 111.495 70.4407 111.492 71.0106C111.492 71.7408 111.492 72.4711 111.492 73.2013C111.492 73.5364 111.492 73.5421 111.136 73.5421H101.501C101.392 73.5421 101.282 73.5421 101.175 73.5421C101.005 73.5421 100.911 73.4934 100.926 73.3187C100.926 73.2157 100.926 73.1126 100.926 73.0123V65.2143Z" fill="#DDDDDD"/>
<path d="M55.8442 65.1886V57.3076C55.8442 56.8236 55.8442 56.8837 56.2946 56.8809H59.4139C59.8125 56.8809 59.8186 56.8809 59.8186 57.2703C59.8186 59.359 59.8186 61.4457 59.8186 63.5305V70.0112C59.8186 70.5238 59.776 70.4923 60.3147 70.4923H66.0967C66.2641 70.4923 66.3584 70.5495 66.3584 70.7185C66.3584 71.5948 66.3584 72.4711 66.3584 73.3474C66.3584 73.4706 66.3037 73.5364 66.1667 73.5393H56.2429C55.8138 73.5393 55.8442 73.5593 55.8442 73.1556V65.1886Z" fill="#DDDDDD"/>
<path d="M111.998 19.5748L102.901 7.08594C103.016 7.01728 103.154 6.99173 103.288 7.01435H111.651C111.712 7.01435 111.773 7.01435 111.837 7.01435C112.004 7.01435 112.104 7.06017 112.092 7.23486C112.092 7.29213 112.092 7.35227 112.092 7.40954C112.092 11.3787 112.092 15.3479 112.092 19.317C112.092 19.3886 112.092 19.4602 112.092 19.5289L111.998 19.5748Z" fill="#E9001D"/>
<path d="M70.1324 65.1915C70.1314 65.4871 70.0685 65.7796 69.9474 66.0523C69.8262 66.325 69.6492 66.5726 69.4264 66.781C69.2035 66.9893 68.9393 67.1544 68.6487 67.2666C68.358 67.3789 68.0468 67.4361 67.7327 67.4352C67.4185 67.4343 67.1077 67.3751 66.8178 67.2611C66.528 67.1471 66.2648 66.9806 66.0434 66.7709C65.822 66.5612 65.6466 66.3125 65.5273 66.0391C65.408 65.7656 65.3472 65.4727 65.3482 65.1771C65.3492 64.8816 65.412 64.589 65.5332 64.3163C65.6543 64.0436 65.8313 63.796 66.0542 63.5876C66.277 63.3793 66.5413 63.2142 66.8319 63.102C67.1225 62.9897 67.4337 62.9325 67.7479 62.9334C68.062 62.9343 68.3729 62.9935 68.6627 63.1075C68.9526 63.2215 69.2157 63.3881 69.4371 63.5977C69.6585 63.8074 69.8339 64.0561 69.9532 64.3295C70.0725 64.603 70.1334 64.8959 70.1324 65.1915Z" fill="#DDDDDD"/>
</svg>
