<svg width="30" height="31" viewBox="0 0 30 31" fill="none" xmlns="http://www.w3.org/2000/svg">
<path d="M9.10547 10.9894L15.0002 10.9894" stroke="white" stroke-width="1.5" stroke-linecap="round"/>
<path d="M1.56795 20.558L2.29802 20.3862L1.56795 20.558ZM1.56795 10.7541L2.29802 10.9258L1.56795 10.7541ZM28.4321 10.7541L29.1621 10.5823L28.4321 10.7541ZM28.4321 20.5579L27.702 20.3862L28.4321 20.5579ZM19.5914 29.1255L19.4206 28.3952H19.4206L19.5914 29.1255ZM10.4086 29.1255L10.5794 28.3952L10.4086 29.1255ZM10.4086 2.18653L10.5794 2.91682L10.4086 2.18653ZM19.5914 2.18653L19.7622 1.45624V1.45624L19.5914 2.18653ZM9.73977 28.969L9.56895 29.6993H9.56896L9.73977 28.969ZM20.2602 28.969L20.431 29.6993V29.6993L20.2602 28.969ZM20.2602 2.34297L20.0894 3.07326L20.2602 2.34297ZM9.73977 2.34297L9.56896 1.61268V1.61268L9.73977 2.34297ZM24.8639 19.5506L24.7221 20.2871H24.7221L24.8639 19.5506ZM24.7775 19.534L24.9193 18.7975L24.9193 18.7975L24.7775 19.534ZM24.7775 11.7781L24.9193 12.5145L24.9193 12.5145L24.7775 11.7781ZM24.8639 11.7614L24.7221 11.025H24.7221L24.8639 11.7614ZM28.3918 12.915C28.7678 13.0886 29.2134 12.9245 29.3871 12.5484C29.5607 12.1724 29.3966 11.7268 29.0206 11.5531L28.3918 12.915ZM29.0206 19.7589C29.3966 19.5853 29.5607 19.1396 29.3871 18.7636C29.2134 18.3875 28.7678 18.2234 28.3918 18.3971L29.0206 19.7589ZM21.7468 16.6332L21.0228 16.8291L21.7468 16.6332ZM21.7468 14.6788L22.4707 14.8747H22.4707L21.7468 14.6788ZM9.91058 3.07326L10.5794 2.91682L10.2378 1.45624L9.56896 1.61268L9.91058 3.07326ZM19.4206 2.91682L20.0894 3.07326L20.431 1.61268L19.7622 1.45624L19.4206 2.91682ZM20.0894 28.2388L19.4206 28.3952L19.7622 29.8558L20.431 29.6993L20.0894 28.2388ZM10.5794 28.3952L9.91058 28.2388L9.56896 29.6993L10.2378 29.8558L10.5794 28.3952ZM2.29802 20.3862C1.56733 17.2801 1.56733 14.0319 2.29802 10.9258L0.837876 10.5823C0.0540416 13.9143 0.054041 17.3977 0.837876 20.7297L2.29802 20.3862ZM27.702 10.9258C28.4327 14.0319 28.4327 17.2801 27.702 20.3862L29.1621 20.7297C29.946 17.3977 29.946 13.9143 29.1621 10.5823L27.702 10.9258ZM19.4206 28.3952C16.5087 29.0763 13.4913 29.0763 10.5794 28.3952L10.2378 29.8558C13.3744 30.5894 16.6256 30.5894 19.7622 29.8558L19.4206 28.3952ZM10.5794 2.91682C13.4913 2.23574 16.5087 2.23574 19.4206 2.91682L19.7622 1.45624C16.6256 0.722596 13.3744 0.722596 10.2378 1.45624L10.5794 2.91682ZM9.91058 28.2388C6.18987 27.3685 3.22818 24.3403 2.29802 20.3862L0.837876 20.7297C1.89028 25.2034 5.25943 28.6914 9.56895 29.6993L9.91058 28.2388ZM20.431 29.6993C24.7406 28.6914 28.1097 25.2034 29.1621 20.7297L27.702 20.3862C26.7718 24.3403 23.8101 27.3685 20.0894 28.2388L20.431 29.6993ZM20.0894 3.07326C23.8101 3.94352 26.7718 6.97175 27.702 10.9258L29.1621 10.5823C28.1097 6.10864 24.7406 2.62066 20.431 1.61268L20.0894 3.07326ZM9.56896 1.61268C5.25943 2.62066 1.89028 6.10864 0.837876 10.5823L2.29802 10.9258C3.22818 6.97175 6.18988 3.94352 9.91058 3.07326L9.56896 1.61268ZM25.0056 18.8141L24.9193 18.7975L24.6358 20.2704L24.7221 20.2871L25.0056 18.8141ZM24.9193 12.5145L25.0056 12.4979L24.7221 11.025L24.6358 11.0416L24.9193 12.5145ZM25.0056 12.4979C26.1471 12.2782 27.3254 12.4226 28.3918 12.915L29.0206 11.5531C27.6715 10.9302 26.1742 10.7455 24.7221 11.025L25.0056 12.4979ZM24.7221 20.2871C26.1742 20.5665 27.6715 20.3818 29.0206 19.7589L28.3918 18.3971C27.3254 18.8894 26.1471 19.0338 25.0056 18.8141L24.7221 20.2871ZM22.4707 16.4373C22.3326 15.9269 22.3326 15.3851 22.4707 14.8747L21.0228 14.4829C20.8152 15.2499 20.8152 16.0621 21.0228 16.8291L22.4707 16.4373ZM24.6358 11.0416C22.8863 11.3783 21.498 12.7267 21.0228 14.4829L22.4707 14.8747C22.8057 13.6368 23.7672 12.7363 24.9193 12.5145L24.6358 11.0416ZM24.9193 18.7975C23.7672 18.5757 22.8057 17.6752 22.4707 16.4373L21.0228 16.8291C21.498 18.5854 22.8863 19.9337 24.6358 20.2704L24.9193 18.7975Z" fill="white"/>
</svg>
