<svg width="26" height="27" viewBox="0 0 26 27" fill="none" xmlns="http://www.w3.org/2000/svg">
<path d="M1.1875 22.982C1.1875 19.7645 4.0972 17.0239 8.05157 16.5169L8.40776 16.4712C11.5742 16.0652 14.8008 16.0652 17.9672 16.4712L18.3234 16.5169C22.2778 17.0239 25.1875 19.7645 25.1875 22.982C25.1875 24.3726 23.7844 25.5 22.0536 25.5H4.32143C2.59061 25.5 1.1875 24.3726 1.1875 22.982Z" stroke="currentColor" stroke-width="1.5"/>
<path d="M20.1875 6.75C20.1875 9.64949 17.0535 12 13.1875 12C9.32154 12 6.18753 9.64949 6.18753 6.75C6.18753 3.85051 9.32154 1.5 13.1875 1.5C17.0535 1.5 20.1875 3.85051 20.1875 6.75Z" stroke="currentColor" stroke-width="1.5"/>
</svg>
