<svg width="28" height="28" viewBox="0 0 28 28" fill="none" xmlns="http://www.w3.org/2000/svg">
<path d="M2.43388 12.3287L2.35183 12.8998H2.9288H4.2C4.4387 12.8998 4.66761 12.9946 4.8364 13.1634C5.00518 13.3322 5.1 13.5611 5.1 13.7998V21C5.1 21.2387 5.00518 21.4676 4.8364 21.6364C4.66761 21.8052 4.43869 21.9 4.2 21.9H2.8C1.49639 21.9 0.5 20.9234 0.5 19.8002V14C0.5 6.55654 6.55654 0.5 14 0.5C21.4435 0.5 27.5 6.55654 27.5 14V19.8002C27.5 20.9234 26.5036 21.9 25.2 21.9H24.7V22.4C24.7 25.2123 22.4123 27.5 19.6 27.5H11.7V24.3H16.3V25.2V25.7H16.8H19.6C21.4203 25.7 22.9 24.2203 22.9 22.4V13.7998C22.9 13.5611 22.9948 13.3322 23.1636 13.1634C23.3324 12.9946 23.5613 12.8998 23.8 12.8998H25.0712H25.6482L25.5661 12.3287C24.753 6.66921 19.8842 2.3 14 2.3C8.11585 2.3 3.24698 6.66921 2.43388 12.3287Z" stroke="white"/>
</svg>
