<svg width="86" height="85" viewBox="0 0 86 85" fill="none" xmlns="http://www.w3.org/2000/svg">
<g clip-path="url(#clip0_1_2379)">
<path d="M37.9109 3.15887C40.9921 0.113872 45.9859 0.113872 49.0671 3.15887L83.6781 37.3679C86.7593 40.4129 86.7593 45.3426 83.6781 48.3824L49.0671 82.5914C45.9859 85.6364 40.9974 85.6364 37.9215 82.5914L3.29994 48.3876C2.56716 47.6649 1.98579 46.8065 1.58912 45.8615C1.19246 44.9165 0.988281 43.9035 0.988281 42.8804C0.988281 41.8573 1.19246 40.8442 1.58912 39.8992C1.98579 38.9542 2.56716 38.0958 3.29994 37.3731L37.9109 3.15887ZM45.3484 6.83387C44.8552 6.34657 44.1864 6.07281 43.489 6.07281C42.7916 6.07281 42.1228 6.34657 41.6296 6.83387L7.01338 41.0376C6.52028 41.525 6.24326 42.1859 6.24326 42.8751C6.24326 43.5643 6.52028 44.2253 7.01338 44.7126L41.6296 78.9216C42.1228 79.4089 42.7916 79.6827 43.489 79.6827C44.1864 79.6827 44.8552 79.4089 45.3484 78.9216L79.9646 44.7126C80.4577 44.2253 80.7348 43.5643 80.7348 42.8751C80.7348 42.1859 80.4577 41.525 79.9646 41.0376L45.3484 6.82862V6.83387Z" fill="#CB5151"/>
<path d="M38.1865 58.6251C38.1865 57.9357 38.3239 57.253 38.5909 56.616C38.8579 55.9791 39.2492 55.4003 39.7425 54.9128C40.2358 54.4253 40.8215 54.0386 41.466 53.7748C42.1106 53.5109 42.8014 53.3751 43.499 53.3751C44.1967 53.3751 44.8875 53.5109 45.532 53.7748C46.1766 54.0386 46.7622 54.4253 47.2555 54.9128C47.7488 55.4003 48.1402 55.9791 48.4071 56.616C48.6741 57.253 48.8115 57.9357 48.8115 58.6251C48.8115 60.0175 48.2518 61.3529 47.2555 62.3374C46.2592 63.322 44.908 63.8751 43.499 63.8751C42.0901 63.8751 40.7388 63.322 39.7425 62.3374C38.7462 61.3529 38.1865 60.0175 38.1865 58.6251ZM38.7071 27.0989C38.6364 26.4365 38.7074 25.7669 38.9154 25.1334C39.1234 24.4999 39.4639 23.9168 39.9148 23.4217C40.3656 22.9267 40.9167 22.5308 41.5324 22.2599C42.148 21.9889 42.8145 21.8489 43.4884 21.8489C44.1623 21.8489 44.8288 21.9889 45.4444 22.2599C46.06 22.5308 46.6112 22.9267 47.062 23.4217C47.5129 23.9168 47.8534 24.4999 48.0614 25.1334C48.2694 25.7669 48.3404 26.4365 48.2696 27.0989L46.4103 45.5106C46.3478 46.2339 46.0129 46.9077 45.4719 47.3987C44.9308 47.8897 44.223 48.1622 43.4884 48.1622C42.7538 48.1622 42.046 47.8897 41.5049 47.3987C40.9639 46.9077 40.629 46.2339 40.5665 45.5106L38.7071 27.0989Z" fill="#CB5151"/>
</g>
<defs>
<clipPath id="clip0_1_2379">
<rect width="85" height="84" fill="white" transform="translate(0.989258 0.875122)"/>
</clipPath>
</defs>
</svg>
