<svg width="24" height="24" viewBox="0 0 24 24" fill="none" xmlns="http://www.w3.org/2000/svg">
<path d="M12.0004 2.4375C10.3329 2.43777 8.69451 2.87407 7.24773 3.70309C5.80095 4.53211 4.5961 5.72504 3.75273 7.1635C2.90936 8.60196 2.4568 10.236 2.43994 11.9033C2.42309 13.5707 2.84253 15.2135 3.65664 16.6688L2.83164 19.5469C2.76428 19.7721 2.75911 20.0114 2.81668 20.2394C2.87425 20.4673 2.99243 20.6755 3.15868 20.8417C3.32493 21.008 3.53307 21.1261 3.76102 21.1837C3.98898 21.2413 4.22826 21.2361 4.45352 21.1688L7.33164 20.3438C8.60693 21.0578 10.0289 21.4699 11.4883 21.5486C12.9478 21.6273 14.4058 21.3704 15.7505 20.7977C17.0952 20.2249 18.2906 19.3516 19.2451 18.2447C20.1995 17.1378 20.8876 15.8269 21.2563 14.4126C21.6251 12.9983 21.6647 11.5183 21.3722 10.0863C21.0798 8.65435 20.4629 7.30846 19.5691 6.15207C18.6753 4.99567 17.5283 4.05955 16.2162 3.41561C14.9042 2.77168 13.462 2.43707 12.0004 2.4375V2.4375ZM12.0004 20.4375C10.4854 20.4417 8.9978 20.0334 7.69727 19.2562C7.60774 19.2085 7.50811 19.1828 7.40664 19.1813C7.3559 19.1775 7.30491 19.1839 7.25664 19.2L4.14414 20.0906C4.11157 20.1007 4.07687 20.1016 4.04379 20.0934C4.01071 20.0852 3.98049 20.0681 3.95638 20.044C3.93228 20.0199 3.9152 19.9897 3.90699 19.9566C3.89878 19.9235 3.89974 19.8888 3.90977 19.8563L4.80039 16.7438C4.82142 16.6703 4.82728 16.5934 4.81761 16.5176C4.80794 16.4419 4.78294 16.3689 4.74414 16.3031C3.79471 14.7018 3.40153 12.8314 3.62584 10.9834C3.85015 9.1353 4.67935 7.4133 5.98429 6.08559C7.28923 4.75789 8.99664 3.89903 10.8406 3.6428C12.6845 3.38657 14.5614 3.74736 16.1789 4.66896C17.7964 5.59056 19.0637 7.02123 19.7834 8.73812C20.503 10.455 20.6347 12.3617 20.1579 14.1612C19.681 15.9608 18.6224 17.5521 17.147 18.6873C15.6715 19.8225 13.862 20.4378 12.0004 20.4375V20.4375ZM8.43789 12C8.43789 12.1854 8.38291 12.3667 8.2799 12.5208C8.17688 12.675 8.03047 12.7952 7.85916 12.8661C7.68785 12.9371 7.49935 12.9557 7.3175 12.9195C7.13564 12.8833 6.96859 12.794 6.83748 12.6629C6.70637 12.5318 6.61708 12.3648 6.58091 12.1829C6.54473 12.001 6.5633 11.8125 6.63426 11.6412C6.70521 11.4699 6.82538 11.3235 6.97955 11.2205C7.13372 11.1175 7.31497 11.0625 7.50039 11.0625C7.74904 11.0625 7.98749 11.1613 8.16331 11.3371C8.33912 11.5129 8.43789 11.7514 8.43789 12ZM12.9379 12C12.9379 12.1854 12.8829 12.3667 12.7799 12.5208C12.6769 12.675 12.5305 12.7952 12.3592 12.8661C12.1879 12.9371 11.9994 12.9557 11.8175 12.9195C11.6356 12.8833 11.4686 12.794 11.3375 12.6629C11.2064 12.5318 11.1171 12.3648 11.0809 12.1829C11.0447 12.001 11.0633 11.8125 11.1343 11.6412C11.2052 11.4699 11.3254 11.3235 11.4795 11.2205C11.6337 11.1175 11.815 11.0625 12.0004 11.0625C12.249 11.0625 12.4875 11.1613 12.6633 11.3371C12.8391 11.5129 12.9379 11.7514 12.9379 12ZM17.4379 12C17.4379 12.1854 17.3829 12.3667 17.2799 12.5208C17.1769 12.675 17.0305 12.7952 16.8592 12.8661C16.6879 12.9371 16.4994 12.9557 16.3175 12.9195C16.1356 12.8833 15.9686 12.794 15.8375 12.6629C15.7064 12.5318 15.6171 12.3648 15.5809 12.1829C15.5447 12.001 15.5633 11.8125 15.6343 11.6412C15.7052 11.4699 15.8254 11.3235 15.9795 11.2205C16.1337 11.1175 16.315 11.0625 16.5004 11.0625C16.749 11.0625 16.9875 11.1613 17.1633 11.3371C17.3391 11.5129 17.4379 11.7514 17.4379 12Z" fill="currentColor"/>
</svg>
