<svg width="20" height="20" viewBox="0 0 20 20" fill="none" xmlns="http://www.w3.org/2000/svg">
<path d="M9.68961 0.750433C10.0213 0.750433 10.348 0.770649 10.6519 0.818216C10.9512 0.855049 11.2464 0.916325 11.5344 1.00135C11.8231 1.0834 12.1054 1.18567 12.3878 1.31411C12.6625 1.43659 12.9449 1.58643 13.2272 1.74935C13.7045 2.03475 14.1743 2.26545 14.6529 2.44977C15.5951 2.80395 16.5914 3.01471 17.6043 3.0741C18.1183 3.10858 18.6463 3.1288 19.1958 3.1288V7.88553C19.1958 8.78931 19.073 9.64552 18.8274 10.4613C18.5914 11.2654 18.2561 12.0409 17.8284 12.7719C17.4024 13.5018 16.8984 14.1892 16.3242 14.8232C15.7412 15.4717 15.1099 16.0805 14.4351 16.645C13.7514 17.2113 13.0313 17.7375 12.2789 18.2207C11.5268 18.7107 10.7671 19.1661 10.0074 19.5799L9.70354 19.75L9.39966 19.5799C8.61871 19.1553 7.8559 18.7019 7.11301 18.2207C6.35636 17.7429 5.63589 17.2164 4.95677 16.645C4.28241 16.0805 3.65156 15.4717 3.06896 14.8232C2.49627 14.1865 1.99002 13.4995 1.55718 12.7719C1.13674 12.0376 0.801807 11.263 0.558198 10.4613C0.311009 9.62261 0.189137 8.75573 0.196082 7.88553V3.1288C0.746853 3.1288 1.27483 3.10858 1.78889 3.0741C2.29491 3.04108 2.79767 2.97312 3.29306 2.87075C3.778 2.76848 4.26293 2.63291 4.74026 2.44977C5.23558 2.26202 5.71047 2.02985 6.15834 1.75648C6.71544 1.41638 7.28014 1.16546 7.83725 1.00016C8.43723 0.827411 9.06212 0.743165 9.68961 0.750433ZM17.9221 4.29776C16.9636 4.25409 16.0141 4.10359 15.0935 3.84944C14.1778 3.59288 13.3055 3.2153 12.503 2.72804C12.0867 2.47141 11.6346 2.27012 11.1596 2.12988C10.6851 1.99519 10.1916 1.92864 9.69594 1.93248C9.19657 1.92945 8.69948 1.99597 8.22089 2.12988C7.74516 2.26556 7.29366 2.46717 6.88131 2.72804C6.07738 3.21796 5.20288 3.59719 4.28445 3.8542C3.38676 4.09917 2.44728 4.24901 1.46222 4.30371V7.89147C1.46222 8.6799 1.57111 9.43384 1.78889 10.1604C2.01075 10.8807 2.31647 11.5758 2.70051 12.2332C3.08915 12.8974 3.54722 13.5236 4.06794 14.1026C4.59592 14.6865 5.15936 15.2299 5.7671 15.746C6.37485 16.2633 7.01172 16.739 7.67771 17.1802C8.35003 17.6226 9.02362 18.0233 9.69594 18.3896C10.3844 18.0132 11.0556 17.6097 11.7078 17.1802C12.3782 16.7404 13.0185 16.2614 13.6248 15.746C14.2325 15.2299 14.7972 14.6865 15.3252 14.1026C15.846 13.5236 16.3041 12.8974 16.6926 12.2332C17.075 11.5766 17.3762 10.8812 17.5903 10.1604C17.8147 9.42268 17.9264 8.65873 17.9221 7.89147V4.29776Z" fill="#34C759"/>
<path fill-rule="evenodd" clip-rule="evenodd" d="M14.4096 6.35027L13.8525 5.90076L13.3385 5.94238L7.81808 12.0643L5.93786 9.54322L5.4314 9.46236L4.84518 9.85598L4.75781 10.3317L7.17488 13.5734L7.44963 13.7161L8.02826 13.7494L8.32453 13.6281L14.4463 6.83189L14.4096 6.35027Z" fill="#34C759"/>
</svg>
