<svg width="29" height="29" viewBox="0 0 29 29" fill="none" xmlns="http://www.w3.org/2000/svg">
<path fill-rule="evenodd" clip-rule="evenodd" d="M13.2915 22.9583C12.6245 22.9583 12.0832 22.417 12.0832 21.75C12.0832 21.083 12.6245 20.5417 13.2915 20.5417C13.9585 20.5417 14.4998 21.083 14.4998 21.75C14.4998 22.417 13.9585 22.9583 13.2915 22.9583ZM25.3748 20.5417H16.693C16.1927 19.1388 14.8648 18.125 13.2915 18.125C11.7183 18.125 10.3903 19.1388 9.89005 20.5417H3.62484C2.95663 20.5417 2.4165 21.0818 2.4165 21.75C2.4165 22.4182 2.95663 22.9583 3.62484 22.9583H9.89005C10.3903 24.3612 11.7183 25.375 13.2915 25.375C14.8648 25.375 16.1927 24.3612 16.693 22.9583H25.3748C26.043 22.9583 26.5832 22.4182 26.5832 21.75C26.5832 21.0818 26.043 20.5417 25.3748 20.5417ZM22.9582 15.7083C22.2912 15.7083 21.7498 15.167 21.7498 14.5C21.7498 13.833 22.2912 13.2917 22.9582 13.2917C23.6252 13.2917 24.1665 13.833 24.1665 14.5C24.1665 15.167 23.6252 15.7083 22.9582 15.7083ZM22.9582 10.875C21.3849 10.875 20.057 11.8888 19.5567 13.2917H3.62484C2.95663 13.2917 2.4165 13.8318 2.4165 14.5C2.4165 15.1682 2.95663 15.7083 3.62484 15.7083H19.5567C20.057 17.1112 21.3849 18.125 22.9582 18.125C24.9568 18.125 26.5832 16.4986 26.5832 14.5C26.5832 12.5014 24.9568 10.875 22.9582 10.875ZM8.45817 6.04167C9.12517 6.04167 9.6665 6.583 9.6665 7.25C9.6665 7.917 9.12517 8.45833 8.45817 8.45833C7.79117 8.45833 7.24984 7.917 7.24984 7.25C7.24984 6.583 7.79117 6.04167 8.45817 6.04167ZM3.62484 8.45833H5.05671C5.55696 9.86121 6.88492 10.875 8.45817 10.875C10.0314 10.875 11.3594 9.86121 11.8596 8.45833H25.3748C26.043 8.45833 26.5832 7.91821 26.5832 7.25C26.5832 6.58179 26.043 6.04167 25.3748 6.04167H11.8596C11.3594 4.63879 10.0314 3.625 8.45817 3.625C6.88492 3.625 5.55696 4.63879 5.05671 6.04167H3.62484C2.95663 6.04167 2.4165 6.58179 2.4165 7.25C2.4165 7.91821 2.95663 8.45833 3.62484 8.45833Z" fill="#DFDFDF"/>
<mask id="mask0_1_971" style="mask-type:alpha" maskUnits="userSpaceOnUse" x="2" y="3" width="25" height="23">
<path fill-rule="evenodd" clip-rule="evenodd" d="M13.2915 22.9583C12.6245 22.9583 12.0832 22.417 12.0832 21.75C12.0832 21.083 12.6245 20.5417 13.2915 20.5417C13.9585 20.5417 14.4998 21.083 14.4998 21.75C14.4998 22.417 13.9585 22.9583 13.2915 22.9583ZM25.3748 20.5417H16.693C16.1927 19.1388 14.8648 18.125 13.2915 18.125C11.7183 18.125 10.3903 19.1388 9.89005 20.5417H3.62484C2.95663 20.5417 2.4165 21.0818 2.4165 21.75C2.4165 22.4182 2.95663 22.9583 3.62484 22.9583H9.89005C10.3903 24.3612 11.7183 25.375 13.2915 25.375C14.8648 25.375 16.1927 24.3612 16.693 22.9583H25.3748C26.043 22.9583 26.5832 22.4182 26.5832 21.75C26.5832 21.0818 26.043 20.5417 25.3748 20.5417ZM22.9582 15.7083C22.2912 15.7083 21.7498 15.167 21.7498 14.5C21.7498 13.833 22.2912 13.2917 22.9582 13.2917C23.6252 13.2917 24.1665 13.833 24.1665 14.5C24.1665 15.167 23.6252 15.7083 22.9582 15.7083ZM22.9582 10.875C21.3849 10.875 20.057 11.8888 19.5567 13.2917H3.62484C2.95663 13.2917 2.4165 13.8318 2.4165 14.5C2.4165 15.1682 2.95663 15.7083 3.62484 15.7083H19.5567C20.057 17.1112 21.3849 18.125 22.9582 18.125C24.9568 18.125 26.5832 16.4986 26.5832 14.5C26.5832 12.5014 24.9568 10.875 22.9582 10.875ZM8.45817 6.04167C9.12517 6.04167 9.6665 6.583 9.6665 7.25C9.6665 7.917 9.12517 8.45833 8.45817 8.45833C7.79117 8.45833 7.24984 7.917 7.24984 7.25C7.24984 6.583 7.79117 6.04167 8.45817 6.04167ZM3.62484 8.45833H5.05671C5.55696 9.86121 6.88492 10.875 8.45817 10.875C10.0314 10.875 11.3594 9.86121 11.8596 8.45833H25.3748C26.043 8.45833 26.5832 7.91821 26.5832 7.25C26.5832 6.58179 26.043 6.04167 25.3748 6.04167H11.8596C11.3594 4.63879 10.0314 3.625 8.45817 3.625C6.88492 3.625 5.55696 4.63879 5.05671 6.04167H3.62484C2.95663 6.04167 2.4165 6.58179 2.4165 7.25C2.4165 7.91821 2.95663 8.45833 3.62484 8.45833Z" fill="white"/>
</mask>
<g mask="url(#mask0_1_971)">
</g>
</svg>
