<svg width="25" height="25" viewBox="0 0 25 25" fill="none" xmlns="http://www.w3.org/2000/svg">
<path d="M9.40722 21.2714V18.2047C9.4072 17.4246 10.0431 16.7908 10.831 16.7856H13.7171C14.5087 16.7856 15.1505 17.4209 15.1505 18.2047V18.2047V21.2809C15.1503 21.9432 15.6843 22.4845 16.353 22.5H18.2771C20.1951 22.5 21.75 20.9607 21.75 19.0618V19.0618V10.3378C21.7398 9.59083 21.3855 8.88935 20.788 8.43303L14.2077 3.1853C13.0549 2.27157 11.4162 2.27157 10.2634 3.1853L3.71203 8.44256C3.11226 8.89702 2.75739 9.59967 2.75 10.3474V19.0618C2.75 20.9607 4.30488 22.5 6.22291 22.5H8.14696C8.83235 22.5 9.38797 21.9499 9.38797 21.2714V21.2714" stroke="currentColor" stroke-width="1.5" stroke-linecap="round" stroke-linejoin="round"/>
</svg>
