<svg width="24" height="24" viewBox="0 0 24 24" fill="none" xmlns="http://www.w3.org/2000/svg">
<path d="M12 21H9.75C6.825 21 4.5 18.675 4.5 15.75V12.75H6V15.75C6 17.85 7.65 19.5 9.75 19.5H12V21ZM21 22.5H22.65L19.2 14.25H17.55L14.1 22.5H15.75L16.35 21H20.325L21 22.5ZM17.025 19.5L18.375 16.2L19.725 19.5H17.025ZM21 11.25H19.5V8.25C19.5 6.15 17.85 4.5 15.75 4.5H12.75V3H15.75C18.75 3 21 5.325 21 8.25V11.25ZM10.5 3.75V2.25H6.75V0.75H5.25V2.25H1.5V3.75H7.65C7.5 4.425 7.05 5.625 6 6.75C5.55 6.225 5.175 5.7 4.95 5.25H3.225C3.525 6 4.05 6.9 4.8 7.725C4.2 8.25 3.3 8.7 2.25 9.075L2.775 10.5C4.125 9.975 5.175 9.375 6 8.775C6.825 9.45 7.875 10.05 9.225 10.5L9.75 9.075C8.7 8.7 7.8 8.175 7.125 7.725C8.55 6.225 9 4.65 9.15 3.75H10.5Z" fill="currentColor"/>
</svg>
