<svg width="30" height="30" viewBox="0 0 30 30" fill="none" xmlns="http://www.w3.org/2000/svg">
<path d="M27.09 11.4518C27.09 11.0376 26.7542 10.7018 26.34 10.7018C25.9258 10.7018 25.59 11.0376 25.59 11.4518H27.09ZM4.40999 11.4518C4.40999 11.0376 4.0742 10.7018 3.65999 10.7018C3.24577 10.7018 2.90999 11.0376 2.90999 11.4518H4.40999ZM18.9095 28.5444L18.7371 27.8145L18.7371 27.8145L18.9095 28.5444ZM11.0905 28.5444L11.2629 27.8145L11.2629 27.8145L11.0905 28.5444ZM19.3998 4.13324L18.8676 4.66169L18.8676 4.66169L19.3998 4.13324ZM28.4678 14.3302C28.7596 14.6241 29.2345 14.6258 29.5284 14.334C29.8224 14.0421 29.8241 13.5672 29.5322 13.2733L28.4678 14.3302ZM10.6002 4.13324L11.1324 4.66169L11.1324 4.66169L10.6002 4.13324ZM0.467794 13.2733C0.17594 13.5672 0.177623 14.0421 0.471553 14.334C0.765482 14.6258 1.24035 14.6241 1.53221 14.3302L0.467794 13.2733ZM11.4509 24.8316L10.7138 24.6932L10.7138 24.6932L11.4509 24.8316ZM11.481 24.6713L12.2181 24.8097L12.2181 24.8097L11.481 24.6713ZM18.519 24.6713L17.7819 24.8097L17.7819 24.8097L18.519 24.6713ZM18.5491 24.8316L19.2862 24.6932L19.2862 24.6932L18.5491 24.8316ZM18.0983 28.3029L18.7755 28.6252L18.7755 28.6252L18.0983 28.3029ZM17.2394 28.3624C17.0614 28.7364 17.2204 29.1839 17.5944 29.3619C17.9684 29.5399 18.4159 29.381 18.5939 29.0069L17.2394 28.3624ZM11.9017 28.3029L11.2245 28.6252L11.2245 28.6252L11.9017 28.3029ZM11.4061 29.0069C11.5841 29.381 12.0316 29.5399 12.4056 29.3619C12.7796 29.1839 12.9386 28.7364 12.7606 28.3624L11.4061 29.0069ZM14.0061 21.9106L13.8056 21.1879L13.8056 21.1879L14.0061 21.9106ZM15.9939 21.9106L16.1944 21.1879L16.1944 21.1879L15.9939 21.9106ZM25.59 11.4518V19.1026H27.09V11.4518H25.59ZM4.40999 19.1026V11.4518H2.90999V19.1026H4.40999ZM18.7371 27.8145C16.279 28.3952 13.721 28.3952 11.2629 27.8145L10.918 29.2743C13.6029 29.9086 16.3971 29.9086 19.0819 29.2743L18.7371 27.8145ZM11.2629 27.8145C7.25172 26.8669 4.40999 23.2611 4.40999 19.1026H2.90999C2.90999 23.9499 6.22333 28.1652 10.918 29.2743L11.2629 27.8145ZM19.0819 29.2743C23.7766 28.1652 27.09 23.9499 27.09 19.1026H25.59C25.59 23.2611 22.7483 26.8669 18.7371 27.8145L19.0819 29.2743ZM18.8676 4.66169L28.4678 14.3302L29.5322 13.2733L19.932 3.6048L18.8676 4.66169ZM10.068 3.6048L0.467794 13.2733L1.53221 14.3302L11.1324 4.66169L10.068 3.6048ZM19.932 3.6048C18.9099 2.57546 18.0913 1.74872 17.3623 1.1886C16.6163 0.615366 15.8759 0.25 15 0.25V1.75C15.4128 1.75 15.8352 1.90684 16.4484 2.37802C17.0787 2.86232 17.8156 3.60219 18.8676 4.66169L19.932 3.6048ZM11.1324 4.66169C12.1844 3.60219 12.9213 2.86232 13.5516 2.37802C14.1648 1.90684 14.5872 1.75 15 1.75V0.25C14.1241 0.25 13.3837 0.615365 12.6377 1.1886C11.9087 1.74872 11.0901 2.57546 10.068 3.6048L11.1324 4.66169ZM12.188 24.9699L12.2181 24.8097L10.7438 24.5329L10.7138 24.6932L12.188 24.9699ZM17.7819 24.8097L17.812 24.9699L19.2862 24.6932L19.2562 24.5329L17.7819 24.8097ZM17.4211 27.9807L17.2394 28.3624L18.5939 29.0069L18.7755 28.6252L17.4211 27.9807ZM11.2245 28.6252L11.4061 29.0069L12.7606 28.3624L12.5789 27.9807L11.2245 28.6252ZM17.812 24.9699C18.0035 25.99 17.8664 27.0449 17.4211 27.9807L18.7755 28.6252C19.3574 27.4025 19.5362 26.025 19.2862 24.6932L17.812 24.9699ZM10.7138 24.6932C10.4638 26.025 10.6426 27.4025 11.2245 28.6252L12.5789 27.9807C12.1336 27.0449 11.9965 25.99 12.188 24.9699L10.7138 24.6932ZM14.2066 22.6333C14.7259 22.4892 15.2741 22.4892 15.7934 22.6333L16.1944 21.1879C15.4127 20.971 14.5873 20.971 13.8056 21.1879L14.2066 22.6333ZM19.2562 24.5329C18.9541 22.9239 17.7682 21.6246 16.1944 21.1879L15.7934 22.6333C16.8113 22.9158 17.5846 23.7584 17.7819 24.8097L19.2562 24.5329ZM12.2181 24.8097C12.4154 23.7584 13.1887 22.9158 14.2066 22.6333L13.8056 21.1879C12.2318 21.6246 11.0459 22.9239 10.7438 24.5329L12.2181 24.8097Z" fill="white"/>
</svg>
