<svg width="24" height="24" viewBox="0 0 24 24" fill="none" xmlns="http://www.w3.org/2000/svg">
<path fill-rule="evenodd" clip-rule="evenodd" d="M6.04571 9.43598C6.04571 8.76474 6.04619 8.12236 6.10087 7.4947C6.35777 4.76959 9.10946 2.75 11.9611 2.75H12.0387C14.8891 2.75 17.6426 4.76888 17.9087 7.4958C17.9341 7.78927 17.9346 8.09141 17.9334 8.42879L17.9332 8.48039C17.932 8.79495 17.9306 9.14215 17.956 9.49042C17.9584 9.52391 17.9631 9.55719 17.97 9.59004C18.1751 10.5673 18.6354 11.4737 19.3037 12.2208C19.5711 12.631 19.7242 13.1016 19.7489 13.586V13.7776L19.7491 13.7963C19.766 14.4743 19.5354 15.1376 19.0961 15.6664C18.4764 16.308 17.6375 16.7093 16.7344 16.7915L16.7344 16.7914L16.7224 16.7927C13.5802 17.1298 10.4099 17.1298 7.26762 16.7927L7.26762 16.7927L7.25858 16.7918C6.35615 16.706 5.51797 16.3056 4.89505 15.6674C4.46335 15.1375 4.23617 14.4778 4.25065 13.8032L4.25083 13.7871V13.5878C4.27805 13.0998 4.43131 12.6259 4.69707 12.2105C5.36706 11.4681 5.82754 10.564 6.03006 9.58842C6.04047 9.53827 6.04571 9.48719 6.04571 9.43598ZM11.9611 1.25C8.54591 1.25 4.95318 3.66609 4.6072 7.35703L4.60719 7.35703L4.60677 7.36177C4.54772 8.03783 4.54578 8.71785 4.54572 9.35566C4.38701 10.0562 4.04504 10.7061 3.55132 11.2408C3.52455 11.2698 3.50011 11.3009 3.47823 11.3337C3.04185 11.9886 2.79062 12.7471 2.75175 13.531C2.75113 13.5434 2.75083 13.5557 2.75083 13.5681V13.7794C2.73043 14.8239 3.08842 15.8399 3.75818 16.6465C3.76982 16.6605 3.78197 16.6741 3.7946 16.6873C4.66977 17.5973 5.84852 18.1634 7.11194 18.2846C10.3572 18.6324 13.6313 18.6325 16.8766 18.2848C18.1428 18.1681 19.3245 17.6004 20.1975 16.685C20.208 16.674 20.2182 16.6627 20.228 16.6511C20.9091 15.844 21.2727 14.8207 21.2489 13.7687V13.5681C21.2489 13.5569 21.2486 13.5456 21.2481 13.5344C21.2128 12.7497 20.96 11.9905 20.5183 11.3385C20.498 11.3086 20.4756 11.2801 20.4512 11.2534C19.9521 10.7068 19.6073 10.0442 19.4486 9.33068C19.4311 9.05746 19.4321 8.77778 19.4333 8.4672L19.4334 8.43421C19.4346 8.1017 19.4351 7.73367 19.4027 7.36177L19.4027 7.36176L19.402 7.35479C19.0451 3.66625 15.4546 1.25 12.0387 1.25H11.9611ZM10.1418 20.3845C9.88366 20.0605 9.4118 20.0071 9.08783 20.2652C8.76387 20.5233 8.71048 20.9952 8.96858 21.3191C9.59265 22.1025 10.5061 22.6061 11.5048 22.7236C12.5011 22.8408 13.5056 22.5649 14.2974 21.9535C14.5413 21.771 14.7612 21.5589 14.9518 21.3219C15.2114 20.9992 15.1603 20.5271 14.8375 20.2674C14.5148 20.0078 14.0427 20.0589 13.7831 20.3817C13.6707 20.5214 13.5404 20.6469 13.3953 20.7551L13.3952 20.755L13.384 20.7637C12.9045 21.1353 12.2912 21.3058 11.6801 21.2339C11.0692 21.162 10.5163 20.8545 10.1418 20.3845Z" fill="white"/>
</svg>
