<svg width="19" height="18" viewBox="0 0 19 18" fill="none" xmlns="http://www.w3.org/2000/svg">
<path fill-rule="evenodd" clip-rule="evenodd" d="M3.1814 8.97176C3.59165 8.91692 3.96885 9.20505 4.02443 9.61543C4.33283 11.9134 6.1123 13.7336 8.4522 14.1461C11.3786 14.6621 14.1673 12.7625 14.67 9.91152C15.1726 7.06124 13.2019 4.32165 10.2755 3.80566C8.9992 3.58061 7.71687 3.81297 6.62719 4.43418L8.2735 4.45259C8.69276 4.45036 9.02009 4.79671 9.01572 5.21024C9.01121 5.6245 8.6716 5.95682 8.25746 5.95158L5.02992 5.9171C4.98812 5.91658 4.94624 5.91224 4.90709 5.90534C4.8192 5.88984 4.73626 5.85923 4.6617 5.81562C4.63619 5.80046 4.61742 5.77735 4.5933 5.75862C4.54898 5.72492 4.50193 5.69377 4.46608 5.6509C4.44326 5.62479 4.43175 5.59077 4.41328 5.56162C4.38494 5.51931 4.35414 5.47808 4.3361 5.42921C4.32323 5.39419 4.32249 5.35522 4.31471 5.31729C4.30467 5.27059 4.28819 5.2258 4.28779 5.17623L4.25183 2.1236C4.24721 1.70926 4.57914 1.36872 4.99335 1.36484C5.4057 1.36292 5.7475 1.69202 5.75225 2.10563L5.76548 3.20538C7.18219 2.35776 8.86378 2.03359 10.536 2.32845C14.2763 2.98796 16.7936 6.50629 16.1472 10.172C15.5008 13.8377 11.932 16.2829 8.19173 15.6234C5.20628 15.0969 2.93411 12.7627 2.53773 9.8148C2.48289 9.40454 2.77101 9.02735 3.1814 8.97176Z" fill="#403C61"/>
<mask id="mask0_1_2354" style="mask-type:alpha" maskUnits="userSpaceOnUse" x="2" y="1" width="15" height="15">
<path fill-rule="evenodd" clip-rule="evenodd" d="M3.1814 8.97176C3.59165 8.91692 3.96885 9.20505 4.02443 9.61543C4.33283 11.9134 6.1123 13.7336 8.4522 14.1461C11.3786 14.6621 14.1673 12.7625 14.67 9.91152C15.1726 7.06124 13.2019 4.32165 10.2755 3.80566C8.9992 3.58061 7.71687 3.81297 6.62719 4.43418L8.2735 4.45259C8.69276 4.45036 9.02009 4.79671 9.01572 5.21024C9.01121 5.6245 8.6716 5.95682 8.25746 5.95158L5.02992 5.9171C4.98812 5.91658 4.94624 5.91224 4.90709 5.90534C4.8192 5.88984 4.73626 5.85923 4.6617 5.81562C4.63619 5.80046 4.61742 5.77735 4.5933 5.75862C4.54898 5.72492 4.50193 5.69377 4.46608 5.6509C4.44326 5.62479 4.43175 5.59077 4.41328 5.56162C4.38494 5.51931 4.35414 5.47808 4.3361 5.42921C4.32323 5.39419 4.32249 5.35522 4.31471 5.31729C4.30467 5.27059 4.28819 5.2258 4.28779 5.17623L4.25183 2.1236C4.24721 1.70926 4.57914 1.36872 4.99335 1.36484C5.4057 1.36292 5.7475 1.69202 5.75225 2.10563L5.76548 3.20538C7.18219 2.35776 8.86378 2.03359 10.536 2.32845C14.2763 2.98796 16.7936 6.50629 16.1472 10.172C15.5008 13.8377 11.932 16.2829 8.19173 15.6234C5.20628 15.0969 2.93411 12.7627 2.53773 9.8148C2.48289 9.40454 2.77101 9.02735 3.1814 8.97176Z" fill="white"/>
</mask>
<g mask="url(#mask0_1_2354)">
</g>
</svg>
