<svg width="86" height="85" viewBox="0 0 86 85" fill="none" xmlns="http://www.w3.org/2000/svg">
<path d="M37.9116 3.15887C40.9929 0.113872 45.9866 0.113872 49.0679 3.15887L83.6788 37.3679C86.76 40.4129 86.76 45.3426 83.6788 48.3824L49.0679 82.5914C45.9866 85.6364 40.9982 85.6364 37.9222 82.5914L3.30068 48.3876C2.56789 47.6649 1.98652 46.8065 1.58986 45.8615C1.19319 44.9165 0.989014 43.9035 0.989014 42.8804C0.989014 41.8573 1.19319 40.8442 1.58986 39.8992C1.98652 38.9542 2.56789 38.0958 3.30068 37.3731L37.9116 3.15887ZM45.3491 6.83387C44.856 6.34657 44.1871 6.07281 43.4897 6.07281C42.7923 6.07281 42.1235 6.34657 41.6304 6.83387L7.01411 41.0376C6.52101 41.525 6.24399 42.1859 6.24399 42.8751C6.24399 43.5643 6.52101 44.2253 7.01411 44.7126L41.6304 78.9216C42.1235 79.4089 42.7923 79.6827 43.4897 79.6827C44.1871 79.6827 44.856 79.4089 45.3491 78.9216L79.9654 44.7126C80.4585 44.2253 80.7355 43.5643 80.7355 42.8751C80.7355 42.1859 80.4585 41.525 79.9654 41.0376L45.3491 6.82862V6.83387Z" fill="currentColor"/>
<path d="M38.1877 58.6251C38.1877 57.9357 38.3251 57.253 38.5921 56.616C38.859 55.9791 39.2504 55.4003 39.7437 54.9128C40.237 54.4253 40.8226 54.0386 41.4672 53.7748C42.1117 53.5109 42.8025 53.3751 43.5002 53.3751C44.1978 53.3751 44.8886 53.5109 45.5332 53.7748C46.1777 54.0386 46.7634 54.4253 47.2567 54.9128C47.75 55.4003 48.1413 55.9791 48.4083 56.616C48.6753 57.253 48.8127 57.9357 48.8127 58.6251C48.8127 60.0175 48.253 61.3529 47.2567 62.3374C46.2604 63.322 44.9091 63.8751 43.5002 63.8751C42.0912 63.8751 40.74 63.322 39.7437 62.3374C38.7474 61.3529 38.1877 60.0175 38.1877 58.6251ZM38.7083 27.0989C38.6376 26.4365 38.7085 25.7669 38.9166 25.1334C39.1246 24.4999 39.4651 23.9167 39.9159 23.4217C40.3668 22.9267 40.9179 22.5308 41.5336 22.2599C42.1492 21.9889 42.8156 21.8489 43.4896 21.8489C44.1635 21.8489 44.8299 21.9889 45.4456 22.2599C46.0612 22.5308 46.6123 22.9267 47.0632 23.4217C47.514 23.9167 47.8545 24.4999 48.0626 25.1334C48.2706 25.7669 48.3415 26.4365 48.2708 27.0989L46.4114 45.5106C46.349 46.2339 46.0141 46.9077 45.473 47.3987C44.932 47.8897 44.2241 48.1622 43.4896 48.1622C42.755 48.1622 42.0472 47.8897 41.5061 47.3987C40.965 46.9077 40.6302 46.2339 40.5677 45.5106L38.7083 27.0989Z" fill="currentColor"/>
</svg>
